  0
SECTION
  2
HEADER
  9
$ACADVER
  1
AC1015
  9
$ACADMAINTVER
 70
     6
  9
$DWGCODEPAGE
  3
ANSI_1252
  9
$INSBASE
 10
0.0
 20
0.0
 30
0.0
  9
$EXTMIN
 10
-190.5
 20
-190.5
 30
0.0
  9
$EXTMAX
 10
190.5
 20
190.5
 30
0.0
  9
$LIMMIN
 10
0.0
 20
0.0
  9
$LIMMAX
 10
420.0
 20
297.0
  9
$ORTHOMODE
 70
     0
  9
$REGENMODE
 70
     1
  9
$FILLMODE
 70
     1
  9
$QTEXTMODE
 70
     0
  9
$MIRRTEXT
 70
     1
  9
$LTSCALE
 40
1.0
  9
$ATTMODE
 70
     1
  9
$TEXTSIZE
 40
3.5
  9
$TRACEWID
 40
1.0
  9
$TEXTSTYLE
  7
Standard
  9
$CLAYER
  8
0
  9
$CELTYPE
  6
ByLayer
  9
$CECOLOR
 62
   256
  9
$CELTSCALE
 40
1.0
  9
$DISPSILH
 70
     0
  9
$DIMSCALE
 40
1.0
  9
$DIMASZ
 40
3.556
  9
$DIMEXO
 40
0.0
  9
$DIMDLI
 40
3.75
  9
$DIMRND
 40
0.0
  9
$DIMDLE
 40
0.0
  9
$DIMEXE
 40
1.0
  9
$DIMTP
 40
0.0
  9
$DIMTM
 40
0.0
  9
$DIMTXT
 40
3.5
  9
$DIMCEN
 40
2.5
  9
$DIMTSZ
 40
0.0
  9
$DIMTOL
 70
     0
  9
$DIMLIM
 70
     0
  9
$DIMTIH
 70
     1
  9
$DIMTOH
 70
     1
  9
$DIMSE1
 70
     0
  9
$DIMSE2
 70
     0
  9
$DIMTAD
 70
     1
  9
$DIMZIN
 70
     1
  9
$DIMBLK
  1

  9
$DIMASO
 70
     1
  9
$DIMSHO
 70
     1
  9
$DIMPOST
  1

  9
$DIMAPOST
  1

  9
$DIMALT
 70
     0
  9
$DIMALTD
 70
     3
  9
$DIMALTF
 40
0.0393700787
  9
$DIMLFAC
 40
1.0
  9
$DIMTOFL
 70
     1
  9
$DIMTVP
 40
0.0
  9
$DIMTIX
 70
     0
  9
$DIMSOXD
 70
     0
  9
$DIMSAH
 70
     0
  9
$DIMBLK1
  1

  9
$DIMBLK2
  1

  9
$DIMSTYLE
  2
ISO-25
  9
$DIMCLRD
 70
     0
  9
$DIMCLRE
 70
     0
  9
$DIMCLRT
 70
     0
  9
$DIMTFAC
 40
1.0
  9
$DIMGAP
 40
1.524
  9
$DIMJUST
 70
     0
  9
$DIMSD1
 70
     0
  9
$DIMSD2
 70
     0
  9
$DIMTOLJ
 70
     0
  9
$DIMTZIN
 70
     1
  9
$DIMALTZ
 70
     0
  9
$DIMALTTZ
 70
     0
  9
$DIMUPT
 70
     0
  9
$DIMDEC
 70
     2
  9
$DIMTDEC
 70
     2
  9
$DIMALTU
 70
     2
  9
$DIMALTTD
 70
     3
  9
$DIMTXSTY
  7
Standard
  9
$DIMAUNIT
 70
     0
  9
$DIMADEC
 70
     2
  9
$DIMALTRND
 40
0.0
  9
$DIMAZIN
 70
     0
  9
$DIMDSEP
 70
    44
  9
$DIMATFIT
 70
     3
  9
$DIMFRAC
 70
     0
  9
$DIMLDRBLK
  1

  9
$DIMLUNIT
 70
     2
  9
$DIMLWD
 70
    -2
  9
$DIMLWE
 70
    -2
  9
$DIMTMOVE
 70
     0
  9
$LUNITS
 70
     2
  9
$LUPREC
 70
     2
  9
$SKETCHINC
 40
1.0
  9
$FILLETRAD
 40
0.0
  9
$AUNITS
 70
     0
  9
$AUPREC
 70
     2
  9
$MENU
  1
.
  9
$ELEVATION
 40
0.0
  9
$PELEVATION
 40
0.0
  9
$THICKNESS
 40
0.0
  9
$LIMCHECK
 70
     0
  9
$CHAMFERA
 40
0.0
  9
$CHAMFERB
 40
0.0
  9
$CHAMFERC
 40
0.0
  9
$CHAMFERD
 40
0.0
  9
$SKPOLY
 70
     0
  9
$TDCREATE
 40
2459966.714588379
  9
$TDUCREATE
 40
2459966.922921713
  9
$TDUPDATE
 40
2459966.715353982
  9
$TDUUPDATE
 40
2459966.923687315
  9
$TDINDWG
 40
0.0000000116
  9
$TDUSRTIMER
 40
0.0000000116
  9
$USRTIMER
 70
     1
  9
$ANGBASE
 50
0.0
  9
$ANGDIR
 70
     0
  9
$PDMODE
 70
     0
  9
$PDSIZE
 40
-1.0
  9
$PLINEWID
 40
0.0
  9
$SPLFRAME
 70
     0
  9
$SPLINETYPE
 70
     6
  9
$SPLINESEGS
 70
     8
  9
$HANDSEED
  5
92
  9
$SURFTAB1
 70
     6
  9
$SURFTAB2
 70
     6
  9
$SURFTYPE
 70
     6
  9
$SURFU
 70
     6
  9
$SURFV
 70
     6
  9
$UCSBASE
  2

  9
$UCSNAME
  2

  9
$UCSORG
 10
0.0
 20
0.0
 30
0.0
  9
$UCSXDIR
 10
1.0
 20
0.0
 30
0.0
  9
$UCSYDIR
 10
0.0
 20
1.0
 30
0.0
  9
$UCSORTHOREF
  2

  9
$UCSORTHOVIEW
 70
     0
  9
$UCSORGTOP
 10
0.0
 20
0.0
 30
0.0
  9
$UCSORGBOTTOM
 10
0.0
 20
0.0
 30
0.0
  9
$UCSORGLEFT
 10
0.0
 20
0.0
 30
0.0
  9
$UCSORGRIGHT
 10
0.0
 20
0.0
 30
0.0
  9
$UCSORGFRONT
 10
0.0
 20
0.0
 30
0.0
  9
$UCSORGBACK
 10
0.0
 20
0.0
 30
0.0
  9
$PUCSBASE
  2

  9
$PUCSNAME
  2

  9
$PUCSORG
 10
0.0
 20
0.0
 30
0.0
  9
$PUCSXDIR
 10
1.0
 20
0.0
 30
0.0
  9
$PUCSYDIR
 10
0.0
 20
1.0
 30
0.0
  9
$PUCSORTHOREF
  2

  9
$PUCSORTHOVIEW
 70
     0
  9
$PUCSORGTOP
 10
0.0
 20
0.0
 30
0.0
  9
$PUCSORGBOTTOM
 10
0.0
 20
0.0
 30
0.0
  9
$PUCSORGLEFT
 10
0.0
 20
0.0
 30
0.0
  9
$PUCSORGRIGHT
 10
0.0
 20
0.0
 30
0.0
  9
$PUCSORGFRONT
 10
0.0
 20
0.0
 30
0.0
  9
$PUCSORGBACK
 10
0.0
 20
0.0
 30
0.0
  9
$USERI1
 70
     0
  9
$USERI2
 70
     0
  9
$USERI3
 70
     0
  9
$USERI4
 70
     0
  9
$USERI5
 70
     0
  9
$USERR1
 40
0.0
  9
$USERR2
 40
0.0
  9
$USERR3
 40
0.0
  9
$USERR4
 40
0.0
  9
$USERR5
 40
0.0
  9
$WORLDVIEW
 70
     1
  9
$SHADEDGE
 70
     3
  9
$SHADEDIF
 70
    70
  9
$TILEMODE
 70
     1
  9
$MAXACTVP
 70
    64
  9
$PINSBASE
 10
0.0
 20
0.0
 30
0.0
  9
$PLIMCHECK
 70
     0
  9
$PEXTMIN
 10
1.0000000000E+20
 20
1.0000000000E+20
 30
1.0000000000E+20
  9
$PEXTMAX
 10
-1.0000000000E+20
 20
-1.0000000000E+20
 30
-1.0000000000E+20
  9
$PLIMMIN
 10
0.0
 20
0.0
  9
$PLIMMAX
 10
420.0
 20
297.0
  9
$UNITMODE
 70
     0
  9
$VISRETAIN
 70
     1
  9
$PLINEGEN
 70
     0
  9
$PSLTSCALE
 70
     1
  9
$TREEDEPTH
 70
  3020
  9
$CMLSTYLE
  2
Standard
  9
$CMLJUST
 70
     0
  9
$CMLSCALE
 40
20.0
  9
$PROXYGRAPHICS
 70
     1
  9
$MEASUREMENT
 70
     1
  9
$CELWEIGHT
370
    -1
  9
$ENDCAPS
280
     0
  9
$JOINSTYLE
280
     0
  9
$LWDISPLAY
290
     1
  9
$INSUNITS
 70
     4
  9
$HYPERLINKBASE
  1

  9
$STYLESHEET
  1

  9
$XEDIT
290
     1
  9
$CEPSNTYPE
380
     0
  9
$PSTYLEMODE
290
     1
  9
$FINGERPRINTGUID
  2
{156a0df9-673f-4d85-96e0-3c8f5b185efb}
  9
$VERSIONGUID
  2
{FAEB1C32-E019-11D5-929B-00C0DF256EC4}
  9
$EXTNAMES
290
     1
  9
$PSVPSCALE
 40
0.0
  9
$OLESTARTUP
290
     0
  0
ENDSEC
  0
SECTION
  2
CLASSES
  0
CLASS
  1
ACDBDICTIONARYWDFLT
  2
AcDbDictionaryWithDefault
  3
ObjectDBX Classes
 90
        0
280
     0
281
     0
  0
CLASS
  1
VISUALSTYLE
  2
AcDbVisualStyle
  3
ObjectDBX Classes
 90
     4095
280
     0
281
     0
  0
CLASS
  1
MATERIAL
  2
AcDbMaterial
  3
ObjectDBX Classes
 90
     1153
280
     0
281
     0
  0
CLASS
  1
SCALE
  2
AcDbScale
  3
ObjectDBX Classes
 90
     1153
280
     0
281
     0
  0
CLASS
  1
TABLESTYLE
  2
AcDbTableStyle
  3
ObjectDBX Classes
 90
     4095
280
     0
281
     0
  0
CLASS
  1
MLEADERSTYLE
  2
AcDbMLeaderStyle
  3
ACDB_MLEADERSTYLE_CLASS
 90
     4095
280
     0
281
     0
  0
CLASS
  1
SUN
  2
AcDbSun
  3
SCENEOE
 90
     1153
280
     0
281
     0
  0
CLASS
  1
ACDBPLACEHOLDER
  2
AcDbPlaceHolder
  3
ObjectDBX Classes
 90
        0
280
     0
281
     0
  0
CLASS
  1
LAYOUT
  2
AcDbLayout
  3
ObjectDBX Classes
 90
        0
280
     0
281
     0
  0
ENDSEC
  0
SECTION
  2
TABLES
  0
TABLE
  2
VPORT
  5
8
330
0
100
AcDbSymbolTable
 70
     1
  0
VPORT
  5
29
330
8
100
AcDbSymbolTableRecord
100
AcDbViewportTableRecord
  2
*Active
 70
     0
 10
0.0
 20
0.0
 11
1.0
 21
1.0
 12
0.0
 22
0.0
 13
0.0
 23
0.0
 14
10.0
 24
10.0
 15
10.0
 25
10.0
 16
0.0
 26
0.0
 36
1.0
 17
0.0
 27
0.0
 37
0.0
 40
388.62
 41
1.0
 42
50.0
 43
0.0
 44
0.0
 50
0.0
 51
0.0
 71
     0
 72
   100
 73
     1
 74
     3
 75
     0
 76
     0
 77
     0
 78
     0
281
     0
 65
     1
110
0.0
120
0.0
130
0.0
111
1.0
121
0.0
131
0.0
112
0.0
122
1.0
132
0.0
 79
     0
146
0.0
  0
ENDTAB
  0
TABLE
  2
LTYPE
  5
5
330
0
100
AcDbSymbolTable
 70
     6
  0
LTYPE
  5
14
330
5
100
AcDbSymbolTableRecord
100
AcDbLinetypeTableRecord
  2
ByBlock
 70
     0
  3

 72
    65
 73
     0
 40
0.0
  0
LTYPE
  5
15
330
5
100
AcDbSymbolTableRecord
100
AcDbLinetypeTableRecord
  2
ByLayer
 70
     0
  3

 72
    65
 73
     0
 40
0.0
  0
LTYPE
  5
16
330
5
100
AcDbSymbolTableRecord
100
AcDbLinetypeTableRecord
  2
Continuous
 70
     0
  3
Solid line
 72
    65
 73
     0
 40
0.0
  0
LTYPE
  5
5E
330
5
100
AcDbSymbolTableRecord
100
AcDbLinetypeTableRecord
  2
HIDDEN
 70
     0
  3
Hidden __ __ __ __ __ __ __ __ __ __ __ __ __ __
 72
    65
 73
     2
 40
1.905
 49
1.27
 74
     0
 49
-0.635
 74
     0
  0
LTYPE
  5
5F
330
5
100
AcDbSymbolTableRecord
100
AcDbLinetypeTableRecord
  2
PHANTOM
 70
     0
  3
Phantom ______  __  __  ______  __  __  ______
 72
    65
 73
     6
 40
12.7
 49
6.35
 74
     0
 49
-1.27
 74
     0
 49
1.27
 74
     0
 49
-1.27
 74
     0
 49
1.27
 74
     0
 49
-1.27
 74
     0
  0
LTYPE
  5
60
330
5
100
AcDbSymbolTableRecord
100
AcDbLinetypeTableRecord
  2
CENTER
 70
     0
  3
Center ____ _ ____ _ ____ _ ____ _ ____ _ ____
 72
    65
 73
     4
 40
10.16
 49
6.35
 74
     0
 49
-1.27
 74
     0
 49
1.27
 74
     0
 49
-1.27
 74
     0
  0
LTYPE
  5
61
330
5
100
AcDbSymbolTableRecord
100
AcDbLinetypeTableRecord
  2
CENTERX2
 70
     0
  3
Center (2x) ________  __  ________  __  _____
 72
    65
 73
     4
 40
20.32
 49
12.7
 74
     0
 49
-2.54
 74
     0
 49
2.54
 74
     0
 49
-2.54
 74
     0
  0
LTYPE
  5
62
330
5
100
AcDbSymbolTableRecord
100
AcDbLinetypeTableRecord
  2
DOT2
 70
     0
  3
Dot (.5x) ........................................
 72
    65
 73
     2
 40
0.635
 49
0.0
 74
     0
 49
-0.635
 74
     0
  0
ENDTAB
  0
TABLE
  2
LAYER
  5
2
330
0
100
AcDbSymbolTable
 70
     1
  0
LAYER
  5
10
330
2
100
AcDbSymbolTableRecord
100
AcDbLayerTableRecord
  2
0
 70
     0
 62
     7
  6
Continuous
370
    -3
390
F
  0
ENDTAB
  0
TABLE
  2
STYLE
  5
3
330
0
100
AcDbSymbolTable
 70
     1
  0
STYLE
  5
11
330
3
100
AcDbSymbolTableRecord
100
AcDbTextStyleTableRecord
  2
Standard
 70
     0
 40
0.0
 41
1.0
 50
0.0
 71
     0
 42
3.5
  3
txt
  4

  0
ENDTAB
  0
TABLE
  2
VIEW
  5
6
330
0
100
AcDbSymbolTable
 70
     0
  0
ENDTAB
  0
TABLE
  2
UCS
  5
7
330
0
100
AcDbSymbolTable
 70
     0
  0
ENDTAB
  0
TABLE
  2
APPID
  5
9
330
0
100
AcDbSymbolTable
 70
     1
  0
APPID
  5
12
330
9
100
AcDbSymbolTableRecord
100
AcDbRegAppTableRecord
  2
ACAD
 70
     0
  0
ENDTAB
  0
TABLE
  2
DIMSTYLE
  5
A
330
0
100
AcDbSymbolTable
 70
     1
100
AcDbDimStyleTable
  0
DIMSTYLE
105
27
330
A
100
AcDbSymbolTableRecord
100
AcDbDimStyleTableRecord
  2
ISO-25
 70
     0
 41
2.5
 42
0.625
 43
3.75
 44
1.25
 73
     0
 74
     0
 77
     1
 78
     8
140
2.5
141
2.5
143
0.0393700787
147
0.625
171
     3
172
     1
178
     0
271
     2
272
     2
274
     3
278
    44
283
     0
284
     8
340
11
  0
ENDTAB
  0
TABLE
  2
BLOCK_RECORD
  5
1
330
0
100
AcDbSymbolTable
 70
     1
  0
BLOCK_RECORD
  5
1F
330
1
100
AcDbSymbolTableRecord
100
AcDbBlockTableRecord
  2
*Model_Space
340
22
  0
BLOCK_RECORD
  5
1B
330
1
100
AcDbSymbolTableRecord
100
AcDbBlockTableRecord
  2
*Paper_Space
340
1E
  0
BLOCK_RECORD
  5
23
330
1
100
AcDbSymbolTableRecord
100
AcDbBlockTableRecord
  2
*Paper_Space0
340
26
  0
ENDTAB
  0
ENDSEC
  0
SECTION
  2
BLOCKS
  0
BLOCK
  5
20
330
1F
100
AcDbEntity
  8
0
100
AcDbBlockBegin
  2
*Model_Space
 70
     0
 10
0.0
 20
0.0
 30
0.0
  3
*Model_Space
  1

  0
ENDBLK
  5
21
330
1F
100
AcDbEntity
  8
0
100
AcDbBlockEnd
  0
BLOCK
  5
1C
330
1B
100
AcDbEntity
 67
     1
  8
0
100
AcDbBlockBegin
  2
*Paper_Space
 70
     0
 10
0.0
 20
0.0
 30
0.0
  3
*Paper_Space
  1

  0
ENDBLK
  5
1D
330
1B
100
AcDbEntity
 67
     1
  8
0
100
AcDbBlockEnd
  0
BLOCK
  5
24
330
23
100
AcDbEntity
  8
0
100
AcDbBlockBegin
  2
*Paper_Space0
 70
     0
 10
0.0
 20
0.0
 30
0.0
  3
*Paper_Space0
  1

  0
ENDBLK
  5
25
330
23
100
AcDbEntity
  8
0
100
AcDbBlockEnd
  0
ENDSEC
  0
SECTION
  2
ENTITIES
  0
LINE
  5
75
330
1F
100
AcDbEntity
  8
0
  6
Continuous
 62
     7
100
AcDbLine
 10
-190.0
 20
190.5
 30
0.0
 11
-190.5
 21
190.5
 31
0.0
  0
LINE
  5
76
330
1F
100
AcDbEntity
  8
0
  6
Continuous
 62
     7
100
AcDbLine
 10
-190.5
 20
190.5
 30
0.0
 11
-190.5
 21
190.0
 31
0.0
  0
LINE
  5
77
330
1F
100
AcDbEntity
  8
0
  6
Continuous
 62
     7
100
AcDbLine
 10
190.5
 20
-190.5
 30
0.0
 11
190.5
 21
-190.0
 31
0.0
  0
LINE
  5
78
330
1F
100
AcDbEntity
  8
0
  6
Continuous
 62
     7
100
AcDbLine
 10
190.5
 20
-190.5
 30
0.0
 11
190.0
 21
-190.5
 31
0.0
  0
LWPOLYLINE
  5
79
330
1F
100
AcDbEntity
  8
0
  6
Continuous
 62
     7
100
AcDbPolyline
 90
      113
 70
   128
 43
0.0
 10
-180.7876825333
 20
147.8459134615
 10
-181.0321314103
 20
147.7157051282
 10
-181.2584935897
 20
147.5814903846
 10
-181.4668269231
 20
147.4412660256
 10
-181.6591346154
 20
147.2990384615
 10
-181.8354166667
 20
147.1508012821
 10
-181.9936698718
 20
146.9965544872
 10
-182.1338942308
 20
146.8403044872
 10
-182.2580929487
 20
146.6780448718
 10
-182.3662660256
 20
146.5117788462
 10
-182.4604166667
 20
146.3395032051
 10
-182.5405448718
 20
146.1612179487
 10
-182.6046474359
 20
145.9789262821
 10
-182.6567307692
 20
145.7886217949
 10
-182.6927884615
 20
145.5943108974
 10
-182.7128205128
 20
145.3939903846
 10
-182.7208333333
 20
145.1876602564
 10
-182.7208333333
 20
145.1876602564
 10
-182.7088141026
 20
144.8991987179
 10
-182.6727564103
 20
144.61875
 10
-182.6146634615
 20
144.3463141026
 10
-182.5325320513
 20
144.0838942308
 10
-182.4243589744
 20
143.8274839744
 10
-182.294150641
 20
143.5830929487
 10
-182.1419070513
 20
143.3447115385
 10
-181.9636217949
 20
143.1163461538
 10
-181.9636217949
 20
143.1163461538
 10
-181.7192307692
 20
142.8599358974
 10
-181.450801282
 20
142.6355769231
 10
-181.1563301282
 20
142.447275641
 10
-180.8358173077
 20
142.2930288462
 10
-180.4912660256
 20
142.1728365385
 10
-180.122676282
 20
142.0866987179
 10
-179.7280448718
 20
142.0366185897
 10
-179.309375
 20
142.0185897436
 10
-179.309375
 20
142.0185897436
 10
-178.9067307692
 20
142.0346153846
 10
-178.528125
 20
142.0786858974
 10
-178.1735576923
 20
142.1548076923
 10
-177.8470352564
 20
142.258974359
 10
-177.5425480769
 20
142.3951923077
 10
-177.2661057692
 20
142.5614583333
 10
-177.0137019231
 20
142.7557692308
 10
-176.7853365385
 20
142.9821314103
 10
-176.5830128205
 20
143.2265224359
 10
-176.4087339744
 20
143.4769230769
 10
-176.2625
 20
143.7333333333
 10
-176.1403044872
 20
143.9957532051
 10
-176.0461538462
 20
144.2641826923
 10
-175.9800480769
 20
144.5386217949
 10
-175.9399839744
 20
144.8190705128
 10
-175.9259615385
 20
145.1055288462
 10
-175.9259615385
 20
145.1055288462
 10
-175.933974359
 20
145.3158653846
 10
-175.9560096154
 20
145.5201923077
 10
-175.9920673077
 20
145.7185096154
 10
-176.0421474359
 20
145.9128205128
 10
-176.1082532051
 20
146.1011217949
 10
-176.1883814103
 20
146.2834134615
 10
-176.2825320513
 20
146.4616987179
 10
-176.3907051282
 20
146.633974359
 10
-176.5169070513
 20
146.8022435897
 10
-176.6591346154
 20
146.9645032051
 10
-176.8213942308
 20
147.1227564103
 10
-177.0016826923
 20
147.2770032051
 10
-177.1979967949
 20
147.4272435897
 10
-177.4143429487
 20
147.571474359
 10
-177.6467147436
 20
147.7116987179
 10
-177.8991185897
 20
147.8459134615
 10
-177.8991185897
 20
147.8459134615
 10
-177.5565705128
 20
148.0442307692
 10
-177.2600961538
 20
148.2665865385
 10
-177.0096955128
 20
148.508974359
 10
-176.8033653846
 20
148.775400641
 10
-176.6431089744
 20
149.0578525641
 10
-176.5309294872
 20
149.3503205128
 10
-176.4608173077
 20
149.6528044872
 10
-176.4387820513
 20
149.9653044872
 10
-176.4387820513
 20
149.9653044872
 10
-176.4628205128
 20
150.2838141026
 10
-176.5349358974
 20
150.5983173077
 10
-176.6571314103
 20
150.9108173077
 10
-176.825400641
 20
151.2173076923
 10
-177.0377403846
 20
151.5077724359
 10
-177.2861378205
 20
151.7641826923
 10
-177.5705929487
 20
151.9885416667
 10
-177.8931089744
 20
152.180849359
 10
-178.2416666667
 20
152.3350961538
 10
-178.6042467949
 20
152.4432692308
 10
-178.9788461538
 20
152.509375
 10
-179.3694711538
 20
152.5314102564
 10
-179.3694711538
 20
152.5314102564
 10
-179.7500801282
 20
152.509375
 10
-180.1146634615
 20
152.4432692308
 10
-180.465224359
 20
152.3310897436
 10
-180.8017628205
 20
152.1768429487
 10
-181.1142628205
 20
151.9845352564
 10
-181.3887019231
 20
151.7581730769
 10
-181.6290865385
 20
151.5017628205
 10
-181.8334134615
 20
151.2133012821
 10
-181.997676282
 20
150.9068108974
 10
-182.1138621795
 20
150.5903044872
 10
-182.183974359
 20
150.2677884615
 10
-182.2080128205
 20
149.9372596154
 10
-182.2080128205
 20
149.9372596154
 10
-182.1859775641
 20
149.6127403846
 10
-182.1198717949
 20
149.30625
 10
-182.0076923077
 20
149.0177884615
 10
-181.8534455128
 20
148.7473557692
 10
-181.653125
 20
148.4949519231
 10
-181.4107371795
 20
148.2625801282
 10
-181.1202724359
 20
148.0442307692
 10
-180.7877403846
 20
147.8459134615
  0
LWPOLYLINE
  5
7A
330
1F
100
AcDbEntity
  8
0
  6
Continuous
 62
     7
100
AcDbPolyline
 90
       64
 70
   128
 43
0.0
 10
-179.3193817139
 20
151.5057692308
 10
-179.1090544872
 20
151.4977564103
 10
-178.9087339744
 20
151.477724359
 10
-178.7184294872
 20
151.4416666667
 10
-178.5361378205
 20
151.3915865385
 10
-178.3618589744
 20
151.3254807692
 10
-178.199599359
 20
151.2473557692
 10
-178.0453525641
 20
151.1532051282
 10
-177.8991185897
 20
151.0450320513
 10
-177.7669070513
 20
150.9268429487
 10
-177.652724359
 20
150.8046474359
 10
-177.5565705128
 20
150.6764423077
 10
-177.4764423077
 20
150.5422275641
 10
-177.4163461538
 20
150.4020032051
 10
-177.372275641
 20
150.2577724359
 10
-177.3442307692
 20
150.1075320513
 10
-177.3362179487
 20
149.9512820513
 10
-177.3362179487
 20
149.9512820513
 10
-177.3462339744
 20
149.7950320513
 10
-177.3742788462
 20
149.6447916667
 10
-177.4203525641
 20
149.4965544872
 10
-177.4884615385
 20
149.3523237179
 10
-177.5725961538
 20
149.212099359
 10
-177.6767628205
 20
149.0738782051
 10
-177.7989583333
 20
148.9416666667
 10
-177.9411858974
 20
148.8114583333
 10
-178.0954326923
 20
148.6912660256
 10
-178.2576923077
 20
148.587099359
 10
-178.4239583333
 20
148.5009615385
 10
-178.5982371795
 20
148.4288461538
 10
-178.778525641
 20
148.3727564103
 10
-178.9648237179
 20
148.3326923077
 10
-179.1571314103
 20
148.3086538462
 10
-179.3554487179
 20
148.3006410256
 10
-179.3554487179
 20
148.3006410256
 10
-179.6098557692
 20
148.3146634615
 10
-179.8582532051
 20
148.3587339744
 10
-180.0986378205
 20
148.430849359
 10
-180.3330128205
 20
148.5310096154
 10
-180.5513621795
 20
148.6572115385
 10
-180.7436698718
 20
148.8054487179
 10
-180.9099358974
 20
148.9737179487
 10
-181.0521634615
 20
149.1640224359
 10
-181.1643429487
 20
149.3663461538
 10
-181.246474359
 20
149.5666666667
 10
-181.294551282
 20
149.7689903846
 10
-181.3105769231
 20
149.9713141026
 10
-181.3105769231
 20
149.9713141026
 10
-181.3025641026
 20
150.1135416667
 10
-181.278525641
 20
150.2517628205
 10
-181.2384615385
 20
150.3859775641
 10
-181.1823717949
 20
150.5201923077
 10
-181.1102564103
 20
150.650400641
 10
-181.0241185897
 20
150.7766025641
 10
-180.9199519231
 20
150.9008012821
 10
-180.7997596154
 20
151.0229967949
 10
-180.6655448718
 20
151.1351762821
 10
-180.5173076923
 20
151.2333333333
 10
-180.3530448718
 20
151.3174679487
 10
-180.1747596154
 20
151.3855769231
 10
-179.9824519231
 20
151.4376602564
 10
-179.7761217949
 20
151.4757211538
 10
-179.5557692308
 20
151.4977564103
 10
-179.3193910256
 20
151.5057692308
  0
LWPOLYLINE
  5
7B
330
1F
100
AcDbEntity
  8
0
  6
Continuous
 62
     7
100
AcDbPolyline
 90
       64
 70
   128
 43
0.0
 10
-179.3774366379
 20
147.275
 10
-179.1110576923
 20
147.2649839744
 10
-178.856650641
 20
147.2329326923
 10
-178.6122596154
 20
147.1828525641
 10
-178.3798878205
 20
147.1107371795
 10
-178.1575320513
 20
147.0165865385
 10
-177.9451923077
 20
146.9024038462
 10
-177.7448717949
 20
146.7681891026
 10
-177.5565705128
 20
146.6139423077
 10
-177.3842948718
 20
146.4456730769
 10
-177.2360576923
 20
146.2713942308
 10
-177.1098557692
 20
146.0891025641
 10
-177.0076923077
 20
145.9008012821
 10
-176.9255608974
 20
145.7044871795
 10
-176.8694711538
 20
145.5021634615
 10
-176.8354166667
 20
145.2918269231
 10
-176.8233974359
 20
145.0754807692
 10
-176.8233974359
 20
145.0754807692
 10
-176.8434294872
 20
144.8070512821
 10
-176.9015224359
 20
144.5486378205
 10
-176.9996794872
 20
144.2942307692
 10
-177.1358974359
 20
144.0498397436
 10
-177.3081730769
 20
143.821474359
 10
-177.5125
 20
143.6231570513
 10
-177.746875
 20
143.4488782051
 10
-178.013301282
 20
143.3046474359
 10
-178.3077724359
 20
143.1904647436
 10
-178.622275641
 20
143.1103365385
 10
-178.9608173077
 20
143.0602564103
 10
-179.3193910256
 20
143.0442307692
 10
-179.3193910256
 20
143.0442307692
 10
-179.5998397436
 20
143.0542467949
 10
-179.8642628205
 20
143.0842948718
 10
-180.1146634615
 20
143.134375
 10
-180.3490384615
 20
143.2044871795
 10
-180.5693910256
 20
143.2926282051
 10
-180.7757211538
 20
143.4028044872
 10
-180.9680288462
 20
143.5310096154
 10
-181.1443108974
 20
143.68125
 10
-181.3025641026
 20
143.8435096154
 10
-181.4407852564
 20
144.0137820513
 10
-181.558974359
 20
144.1900641026
 10
-181.653125
 20
144.3723557692
 10
-181.7272435897
 20
144.5606570513
 10
-181.7813301282
 20
144.7569711538
 10
-181.8133814103
 20
144.9592948718
 10
-181.8233974359
 20
145.1696314103
 10
-181.8233974359
 20
145.1696314103
 10
-181.8113782051
 20
145.3739583333
 10
-181.7793269231
 20
145.5702724359
 10
-181.7232371795
 20
145.7625801282
 10
-181.6451121795
 20
145.9488782051
 10
-181.5429487179
 20
146.1291666667
 10
-181.4207532051
 20
146.3034455128
 10
-181.2745192308
 20
146.4717147436
 10
-181.10625
 20
146.633974359
 10
-180.9219551282
 20
146.7842147436
 10
-180.7296474359
 20
146.9144230769
 10
-180.5273237179
 20
147.024599359
 10
-180.3149839744
 20
147.1147435897
 10
-180.0946314103
 20
147.1848557692
 10
-179.8642628205
 20
147.2349358974
 10
-179.6258814103
 20
147.2649839744
 10
-179.3774839744
 20
147.275
  0
LWPOLYLINE
  5
7C
330
1F
100
AcDbEntity
  8
0
  6
Continuous
 62
     7
100
AcDbPolyline
 90
       12
 70
   128
 43
0.0
 10
-182.207942009
 20
110.205
 10
-176.0541666667
 20
110.205
 10
-176.0541666667
 20
110.205
 10
-181.3105769231
 20
99.9485897436
 10
-181.3105769231
 20
99.9485897436
 10
-182.0858173077
 20
100.3752724359
 10
-182.0858173077
 20
100.3752724359
 10
-177.5725961538
 20
109.1793589744
 10
-177.5725961538
 20
109.1793589744
 10
-182.2080128205
 20
109.1793589744
 10
-182.2080128205
 20
109.1793589744
 10
-182.2080128205
 20
110.205
  0
LWPOLYLINE
  5
7D
330
1F
100
AcDbEntity
  8
0
  6
Continuous
 62
     7
100
AcDbPolyline
 90
       65
 70
   128
 43
0.0
 10
-178.2336235046
 20
68.3914102564
 10
-177.5425480769
 20
67.8485416667
 10
-177.5425480769
 20
67.8485416667
 10
-180.184775641
 20
63.8080769231
 10
-180.184775641
 20
63.8080769231
 10
-179.6559294872
 20
63.8801923077
 10
-179.1491185897
 20
63.9042307692
 10
-179.1491185897
 20
63.9042307692
 10
-178.8446314103
 20
63.8902083333
 10
-178.5521634615
 20
63.8501442308
 10
-178.2717147436
 20
63.7840384615
 10
-178.0032852564
 20
63.6898878205
 10
-177.746875
 20
63.5696955128
 10
-177.5004807692
 20
63.4234615385
 10
-177.2681089744
 20
63.2491826923
 10
-177.0457532051
 20
63.0488621795
 10
-176.8434294872
 20
62.8285096154
 10
-176.6671474359
 20
62.5961378205
 10
-176.5189102564
 20
62.3517467949
 10
-176.3987179487
 20
62.0953365385
 10
-176.3045673077
 20
61.8249038462
 10
-176.2364583333
 20
61.5424519231
 10
-176.1963942308
 20
61.2479807692
 10
-176.1823717949
 20
60.9414903846
 10
-176.1823717949
 20
60.9414903846
 10
-176.2064102564
 20
60.5228205128
 10
-176.2825320513
 20
60.1241826923
 10
-176.4067307692
 20
59.7475801282
 10
-176.5830128205
 20
59.3890064103
 10
-176.8033653846
 20
59.0604807692
 10
-177.0677884615
 20
58.7680128205
 10
-177.372275641
 20
58.509599359
 10
-177.7208333333
 20
58.2872435897
 10
-178.0954326923
 20
58.1089583333
 10
-178.4860576923
 20
57.9807532051
 10
-178.8887019231
 20
57.9046314103
 10
-179.3073717949
 20
57.8785897436
 10
-179.3073717949
 20
57.8785897436
 10
-179.7100160256
 20
57.9026282051
 10
-180.0986378205
 20
57.9767467949
 10
-180.4732371795
 20
58.1009455128
 10
-180.8318108974
 20
58.2732211538
 10
-181.1643429487
 20
58.4915705128
 10
-181.4588141026
 20
58.7499839744
 10
-181.7172275641
 20
59.0484615385
 10
-181.9355769231
 20
59.3870032051
 10
-182.1098557692
 20
59.7535897436
 10
-182.2360576923
 20
60.1301923077
 10
-182.310176282
 20
60.5208173077
 10
-182.3362179487
 20
60.9234615385
 10
-182.3362179487
 20
60.9234615385
 10
-182.3201923077
 20
61.2319551282
 10
-182.2741185897
 20
61.5504647436
 10
-182.1979967949
 20
61.8749839744
 10
-182.0918269231
 20
62.2075160256
 10
-182.0237179487
 20
62.3797916667
 10
-181.9455929487
 20
62.5620833333
 10
-181.8534455128
 20
62.7503846154
 10
-181.7512820513
 20
62.9487019231
 10
-181.6350961538
 20
63.1570352564
 10
-181.5088942308
 20
63.3713782051
 10
-181.3686698718
 20
63.5957371795
 10
-181.2184294872
 20
63.8281089744
 10
-181.2184294872
 20
63.8281089744
 10
-178.2336538462
 20
68.3914102564
  0
LWPOLYLINE
  5
7E
330
1F
100
AcDbEntity
  8
0
  6
Continuous
 62
     7
100
AcDbPolyline
 90
       68
 70
   128
 43
0.0
 10
-179.3373823166
 20
62.8785897436
 10
-179.5657852564
 20
62.8685737179
 10
-179.7821314103
 20
62.8425320513
 10
-179.9884615385
 20
62.7964583333
 10
-180.184775641
 20
62.7343589744
 10
-180.3690705128
 20
62.6522275641
 10
-180.5413461538
 20
62.5520673077
 10
-180.7036057692
 20
62.4338782051
 10
-180.855849359
 20
62.2976602564
 10
-180.9920673077
 20
62.1494230769
 10
-181.1102564103
 20
61.9911698718
 10
-181.2104166667
 20
61.8269070513
 10
-181.2925480769
 20
61.6546314103
 10
-181.356650641
 20
61.4743429487
 10
-181.402724359
 20
61.2860416667
 10
-181.4287660256
 20
61.0917307692
 10
-181.4387820513
 20
60.8874038462
 10
-181.4387820513
 20
60.8874038462
 10
-181.4287660256
 20
60.6850801282
 10
-181.3987179487
 20
60.4927724359
 10
-181.3486378205
 20
60.3044711538
 10
-181.278525641
 20
60.1261858974
 10
-181.1903846154
 20
59.9539102564
 10
-181.0802083333
 20
59.791650641
 10
-180.9520032051
 20
59.6333974359
 10
-180.8017628205
 20
59.4851602564
 10
-180.6375
 20
59.3489423077
 10
-180.465224359
 20
59.2307532051
 10
-180.2849358974
 20
59.1305929487
 10
-180.0966346154
 20
59.0504647436
 10
-179.9003205128
 20
58.9863621795
 10
-179.6939903846
 20
58.9402884615
 10
-179.481650641
 20
58.9142467949
 10
-179.2592948718
 20
58.9042307692
 10
-179.2592948718
 20
58.9042307692
 10
-179.0369391026
 20
58.9142467949
 10
-178.824599359
 20
58.9402884615
 10
-178.6182692308
 20
58.9863621795
 10
-178.4219551282
 20
59.0504647436
 10
-178.2336538462
 20
59.1305929487
 10
-178.0533653846
 20
59.2307532051
 10
-177.8830929487
 20
59.3489423077
 10
-177.7188301282
 20
59.4851602564
 10
-177.5685897436
 20
59.6333974359
 10
-177.4383814103
 20
59.791650641
 10
-177.3302083333
 20
59.9539102564
 10
-177.2400641026
 20
60.1261858974
 10
-177.1699519231
 20
60.3044711538
 10
-177.1198717949
 20
60.4927724359
 10
-177.0898237179
 20
60.6850801282
 10
-177.0798076923
 20
60.8874038462
 10
-177.0798076923
 20
60.8874038462
 10
-177.0898237179
 20
61.0917307692
 10
-177.121875
 20
61.2860416667
 10
-177.1719551282
 20
61.4743429487
 10
-177.2440705128
 20
61.6546314103
 10
-177.3382211538
 20
61.8269070513
 10
-177.4524038462
 20
61.9911698718
 10
-177.5866185897
 20
62.1494230769
 10
-177.7408653846
 20
62.2976602564
 10
-177.9111378205
 20
62.4338782051
 10
-178.0894230769
 20
62.5520673077
 10
-178.2757211538
 20
62.6522275641
 10
-178.4700320513
 20
62.7343589744
 10
-178.6743589744
 20
62.7964583333
 10
-178.8866987179
 20
62.8425320513
 10
-179.107051282
 20
62.8685737179
 10
-179.3374198718
 20
62.8785897436
  0
LWPOLYLINE
  5
7F
330
1F
100
AcDbEntity
  8
0
  6
Continuous
 62
     7
100
AcDbPolyline
 90
      132
 70
   128
 43
0.0
 10
-176.5669584274
 20
26.065
 10
-176.5669871795
 20
25.0393589744
 10
-176.5669871795
 20
25.0393589744
 10
-179.9684294872
 20
25.0393589744
 10
-179.9684294872
 20
25.0393589744
 10
-180.5072916667
 20
22.409150641
 10
-180.5072916667
 20
22.409150641
 10
-180.1887820513
 20
22.4932852564
 10
-179.8862980769
 20
22.5553846154
 10
-179.5998397436
 20
22.5914423077
 10
-179.3294070513
 20
22.6034615385
 10
-179.3294070513
 20
22.6034615385
 10
-178.9948717949
 20
22.5894391026
 10
-178.6743589744
 20
22.5453685897
 10
-178.3698717949
 20
22.4732532051
 10
-178.0794070513
 20
22.3730929487
 10
-177.8049679487
 20
22.2448878205
 10
-177.5465544872
 20
22.0866346154
 10
-177.3021634615
 20
21.9003365385
 10
-177.0717948718
 20
21.6839903846
 10
-176.8634615385
 20
21.4456089744
 10
-176.6831730769
 20
21.1932051282
 10
-176.528926282
 20
20.9227724359
 10
-176.4047275641
 20
20.6383173077
 10
-176.3065705128
 20
20.3358333333
 10
-176.2384615385
 20
20.0173237179
 10
-176.1963942308
 20
19.6827884615
 10
-176.1823717949
 20
19.3322275641
 10
-176.1823717949
 20
19.3322275641
 10
-176.1903846154
 20
19.0878365385
 10
-176.2104166667
 20
18.8474519231
 10
-176.246474359
 20
18.6130769231
 10
-176.2965544872
 20
18.3827083333
 10
-176.3606570513
 20
18.158349359
 10
-176.4387820513
 20
17.94
 10
-176.5329326923
 20
17.7256570513
 10
-176.6391025641
 20
17.5153205128
 10
-176.7572916667
 20
17.315
 10
-176.8875
 20
17.1266987179
 10
-177.0257211538
 20
16.9504166667
 10
-177.1739583333
 20
16.7861538462
 10
-177.3342147436
 20
16.6339102564
 10
-177.5044871795
 20
16.4936858974
 10
-177.6827724359
 20
16.3654807692
 10
-177.8730769231
 20
16.2492948718
 10
-178.0713942308
 20
16.1451282051
 10
-178.277724359
 20
16.0569871795
 10
-178.4900641026
 20
15.9808653846
 10
-178.7104166667
 20
15.9187660256
 10
-178.9387820513
 20
15.8706891026
 10
-179.1751602564
 20
15.8366346154
 10
-179.419551282
 20
15.814599359
 10
-179.6699519231
 20
15.8085897436
 10
-179.6699519231
 20
15.8085897436
 10
-179.9684294872
 20
15.8206089744
 10
-180.2548878205
 20
15.8586698718
 10
-180.5293269231
 20
15.9187660256
 10
-180.7917467949
 20
16.0049038462
 10
-181.0421474359
 20
16.1150801282
 10
-181.2805288462
 20
16.2512980769
 10
-181.5088942308
 20
16.4095512821
 10
-181.7232371795
 20
16.5938461538
 10
-181.9215544872
 20
16.7981730769
 10
-182.0978365385
 20
17.0165224359
 10
-182.2540865385
 20
17.2488942308
 10
-182.3903044872
 20
17.4972916667
 10
-182.5044871795
 20
17.7577083333
 10
-182.5966346154
 20
18.034150641
 10
-182.66875
 20
18.3246153846
 10
-182.7208333333
 20
18.6291025641
 10
-182.7208333333
 20
18.6291025641
 10
-181.8233974359
 20
18.6291025641
 10
-181.8233974359
 20
18.6291025641
 10
-181.7512820513
 20
18.3446474359
 10
-181.6591346154
 20
18.0902403846
 10
-181.5449519231
 20
17.861875
 10
-181.4107371795
 20
17.6615544872
 10
-181.2524839744
 20
17.4852724359
 10
-181.0701923077
 20
17.3270192308
 10
-180.8638621795
 20
17.1847916667
 10
-180.6334935897
 20
17.0625961538
 10
-180.3891025641
 20
16.9624358974
 10
-180.1366987179
 20
16.8923237179
 10
-179.8802884615
 20
16.8482532051
 10
-179.6178685897
 20
16.8342307692
 10
-179.6178685897
 20
16.8342307692
 10
-179.3614583333
 20
16.84625
 10
-179.1150641026
 20
16.8803044872
 10
-178.8766826923
 20
16.9363942308
 10
-178.6483173077
 20
17.0165224359
 10
-178.4299679487
 20
17.1166826923
 10
-178.2196314103
 20
17.2428846154
 10
-178.0193108974
 20
17.3891185897
 10
-177.8270032051
 20
17.5593910256
 10
-177.652724359
 20
17.7456891026
 10
-177.5004807692
 20
17.9440064103
 10
-177.372275641
 20
18.1543429487
 10
-177.2661057692
 20
18.3746955128
 10
-177.183974359
 20
18.6070673077
 10
-177.1258814103
 20
18.8494551282
 10
-177.0918269231
 20
19.1038621795
 10
-177.0798076923
 20
19.3702884615
 10
-177.0798076923
 20
19.3702884615
 10
-177.0898237179
 20
19.6106730769
 10
-177.1198717949
 20
19.8390384615
 10
-177.1719551282
 20
20.0553846154
 10
-177.2440705128
 20
20.2597115385
 10
-177.3362179487
 20
20.4540224359
 10
-177.4483974359
 20
20.6363141026
 10
-177.5826121795
 20
20.8065865385
 10
-177.7368589744
 20
20.9648397436
 10
-177.9071314103
 20
21.1090705128
 10
-178.0934294872
 20
21.2332692308
 10
-178.2917467949
 20
21.3374358974
 10
-178.5040865385
 20
21.4255769231
 10
-178.7304487179
 20
21.4916826923
 10
-178.9708333333
 20
21.5397596154
 10
-179.2232371795
 20
21.5678044872
 10
-179.4916666667
 20
21.5778205128
 10
-179.4916666667
 20
21.5778205128
 10
-179.7240384615
 20
21.5698076923
 10
-179.9704326923
 20
21.5457692308
 10
-180.2268429487
 20
21.5057051282
 10
-180.497275641
 20
21.4496153846
 10
-180.777724359
 20
21.3775
 10
-181.0721955128
 20
21.2893589744
 10
-181.3766826923
 20
21.1851923077
 10
-181.6951923077
 20
21.065
 10
-181.6951923077
 20
21.065
 10
-180.669551282
 20
26.065
 10
-180.669551282
 20
26.065
 10
-176.5669871795
 20
26.065
  0
LWPOLYLINE
  5
80
330
1F
100
AcDbEntity
  8
0
  6
Continuous
 62
     7
100
AcDbPolyline
 90
       20
 70
   128
 43
0.0
 10
-177.3902177811
 20
-15.7485897436
 10
-177.2080128205
 20
-15.7485897436
 10
-177.2080128205
 20
-15.7485897436
 10
-177.2080128205
 20
-22.6716666667
 10
-177.2080128205
 20
-22.6716666667
 10
-176.0541666667
 20
-22.6716666667
 10
-176.0541666667
 20
-22.6716666667
 10
-176.0541666667
 20
-23.6973076923
 10
-176.0541666667
 20
-23.6973076923
 10
-177.2080128205
 20
-23.6973076923
 10
-177.2080128205
 20
-23.6973076923
 10
-177.2080128205
 20
-26.005
 10
-177.2080128205
 20
-26.005
 10
-178.1054487179
 20
-26.005
 10
-178.1054487179
 20
-26.005
 10
-178.1054487179
 20
-23.6973076923
 10
-178.1054487179
 20
-23.6973076923
 10
-182.8490384615
 20
-23.6973076923
 10
-182.8490384615
 20
-23.6973076923
 10
-177.3903044872
 20
-15.7485897436
  0
LWPOLYLINE
  5
81
330
1F
100
AcDbEntity
  8
0
  6
Continuous
 62
     7
100
AcDbPolyline
 90
        6
 70
   128
 43
0.0
 10
-178.1053543091
 20
-22.6716666667
 10
-178.1054487179
 20
-18.3287179487
 10
-178.1054487179
 20
-18.3287179487
 10
-181.0862179487
 20
-22.6716666667
 10
-181.0862179487
 20
-22.6716666667
 10
-178.1054487179
 20
-22.6716666667
  0
LWPOLYLINE
  5
82
330
1F
100
AcDbEntity
  8
0
  6
Continuous
 62
     7
100
AcDbPolyline
 90
      184
 70
   128
 43
0.0
 10
-181.5669536591
 20
-60.3826923077
 10
-182.4644230769
 20
-60.3826923077
 10
-182.4644230769
 20
-60.3826923077
 10
-182.3862980769
 20
-60.0822115385
 10
-182.2901442308
 20
-59.8017628205
 10
-182.1799679487
 20
-59.5373397436
 10
-182.0517628205
 20
-59.2909455128
 10
-181.9095352564
 20
-59.0625801282
 10
-181.7492788462
 20
-58.8522435897
 10
-181.5729967949
 20
-58.6579326923
 10
-181.3806891026
 20
-58.4836538462
 10
-181.1763621795
 20
-58.3274038462
 10
-180.9620192308
 20
-58.1931891026
 10
-180.7396634615
 20
-58.0790064103
 10
-180.5072916667
 20
-57.9848557692
 10
-180.2649038462
 20
-57.9127403846
 10
-180.0145032051
 20
-57.8606570513
 10
-179.7560897436
 20
-57.8286057692
 10
-179.4876602564
 20
-57.8185897436
 10
-179.4876602564
 20
-57.8185897436
 10
-179.0970352564
 20
-57.840625
 10
-178.7204326923
 20
-57.9087339744
 10
-178.3578525641
 20
-58.0209134615
 10
-178.0072916667
 20
-58.1771634615
 10
-177.6827724359
 20
-58.371474359
 10
-177.3983173077
 20
-58.5978365385
 10
-177.1519230769
 20
-58.85625
 10
-176.9435897436
 20
-59.1447115385
 10
-176.7793269231
 20
-59.4532051282
 10
-176.6611378205
 20
-59.7677083333
 10
-176.591025641
 20
-60.0882211538
 10
-176.5669871795
 20
-60.4167467949
 10
-176.5669871795
 20
-60.4167467949
 10
-176.5850160256
 20
-60.7332532051
 10
-176.6391025641
 20
-61.0317307692
 10
-176.73125
 20
-61.3141826923
 10
-176.8594551282
 20
-61.5806089744
 10
-177.0237179487
 20
-61.8290064103
 10
-177.2240384615
 20
-62.0613782051
 10
-177.4604166667
 20
-62.2757211538
 10
-177.7348557692
 20
-62.4740384615
 10
-177.7348557692
 20
-62.4740384615
 10
-177.4203525641
 20
-62.6362980769
 10
-177.1338942308
 20
-62.8326121795
 10
-176.8774839744
 20
-63.0629807692
 10
-176.6511217949
 20
-63.3274038462
 10
-176.6511217949
 20
-63.3274038462
 10
-176.5108974359
 20
-63.527724359
 10
-176.3907051282
 20
-63.7360576923
 10
-176.2865384615
 20
-63.9483974359
 10
-176.2024038462
 20
-64.16875
 10
-176.138301282
 20
-64.3931089744
 10
-176.0922275641
 20
-64.6234775641
 10
-176.0641826923
 20
-64.8618589744
 10
-176.0541666667
 20
-65.1042467949
 10
-176.0541666667
 20
-65.1042467949
 10
-176.0822115385
 20
-65.5229166667
 10
-176.168349359
 20
-65.9315705128
 10
-176.3105769231
 20
-66.3322115385
 10
-176.5108974359
 20
-66.7208333333
 10
-176.7592948718
 20
-67.0834134615
 10
-177.0477564103
 20
-67.4019230769
 10
-177.3802884615
 20
-67.6783653846
 10
-177.7528846154
 20
-67.9107371795
 10
-178.1575320513
 20
-68.0950320513
 10
-178.5862179487
 20
-68.2252403846
 10
-179.0389423077
 20
-68.3053685897
 10
-179.5137019231
 20
-68.3314102564
 10
-179.5137019231
 20
-68.3314102564
 10
-179.8342147436
 20
-68.3193910256
 10
-180.1427083333
 20
-68.2853365385
 10
-180.4371794872
 20
-68.2252403846
 10
-180.7176282051
 20
-68.1431089744
 10
-180.9840544872
 20
-68.0389423077
 10
-181.2364583333
 20
-67.9107371795
 10
-181.4768429487
 20
-67.7584935897
 10
-181.7032051282
 20
-67.5822115385
 10
-181.9135416667
 20
-67.3838942308
 10
-182.1038461538
 20
-67.1635416667
 10
-182.2761217949
 20
-66.9211538462
 10
-182.4283653846
 20
-66.6567307692
 10
-182.5625801282
 20
-66.372275641
 10
-182.6767628205
 20
-66.0637820513
 10
-182.7729166667
 20
-65.7352564103
 10
-182.8490384615
 20
-65.3826923077
 10
-182.8490384615
 20
-65.3826923077
 10
-181.9516025641
 20
-65.3826923077
 10
-181.9516025641
 20
-65.3826923077
 10
-181.8794871795
 20
-65.6130608974
 10
-181.8013621795
 20
-65.8274038462
 10
-181.7132211538
 20
-66.0257211538
 10
-181.6190705128
 20
-66.2060096154
 10
-181.5189102564
 20
-66.3702724359
 10
-181.4087339744
 20
-66.5185096154
 10
-181.2925480769
 20
-66.6507211538
 10
-181.168349359
 20
-66.7649038462
 10
-181.168349359
 20
-66.7649038462
 10
-180.9980769231
 20
-66.8911057692
 10
-180.8177884615
 20
-67.0012820513
 10
-180.6254807692
 20
-67.0954326923
 10
-180.4231570513
 20
-67.1695512821
 10
-180.2088141026
 20
-67.2296474359
 10
-179.9824519231
 20
-67.2717147436
 10
-179.7460737179
 20
-67.2977564103
 10
-179.497676282
 20
-67.3057692308
 10
-179.497676282
 20
-67.3057692308
 10
-179.2172275641
 20
-67.2957532051
 10
-178.950801282
 20
-67.2657051282
 10
-178.6983974359
 20
-67.2176282051
 10
-178.4600160256
 20
-67.1475160256
 10
-178.2376602564
 20
-67.059375
 10
-178.0273237179
 20
-66.9491987179
 10
-177.8330128205
 20
-66.8209935897
 10
-177.6507211538
 20
-66.6727564103
 10
-177.4864583333
 20
-66.5104967949
 10
-177.3442307692
 20
-66.3422275641
 10
-177.2240384615
 20
-66.1679487179
 10
-177.1258814103
 20
-65.9856570513
 10
-177.0497596154
 20
-65.7973557692
 10
-176.9956730769
 20
-65.6010416667
 10
-176.9616185897
 20
-65.3987179487
 10
-176.9516025641
 20
-65.1903846154
 10
-176.9516025641
 20
-65.1903846154
 10
-176.9736378205
 20
-64.9119391026
 10
-177.0377403846
 20
-64.6415064103
 10
-177.1459134615
 20
-64.3810897436
 10
-177.2981570513
 20
-64.1306891026
 10
-177.4864583333
 20
-63.8983173077
 10
-177.7028044872
 20
-63.6959935897
 10
-177.9512019231
 20
-63.5257211538
 10
-178.2276442308
 20
-63.3854967949
 10
-178.3818910256
 20
-63.325400641
 10
-178.5581730769
 20
-63.2713141026
 10
-178.7524839744
 20
-63.2252403846
 10
-178.9688301282
 20
-63.1831730769
 10
-179.2032051282
 20
-63.1471153846
 10
-179.4576121795
 20
-63.1170673077
 10
-179.7340544872
 20
-63.0930288462
 10
-180.028525641
 20
-63.075
 10
-180.028525641
 20
-63.075
 10
-180.028525641
 20
-62.0493589744
 10
-180.028525641
 20
-62.0493589744
 10
-179.6579326923
 20
-62.0353365385
 10
-179.3053685897
 20
-61.9892628205
 10
-178.9688301282
 20
-61.9171474359
 10
-178.6503205128
 20
-61.8129807692
 10
-178.3598557692
 20
-61.6867788462
 10
-178.1134615385
 20
-61.5445512821
 10
-177.9091346154
 20
-61.3862980769
 10
-177.746875
 20
-61.2120192308
 10
-177.622676282
 20
-61.0237179487
 10
-177.5345352564
 20
-60.8294070513
 10
-177.4824519231
 20
-60.6250801282
 10
-177.4644230769
 20
-60.4127403846
 10
-177.4644230769
 20
-60.4127403846
 10
-177.4724358974
 20
-60.2564903846
 10
-177.5004807692
 20
-60.1042467949
 10
-177.544551282
 20
-59.9600160256
 10
-177.606650641
 20
-59.8177884615
 10
-177.6867788462
 20
-59.6835737179
 10
-177.7849358974
 20
-59.5533653846
 10
-177.9011217949
 20
-59.4291666667
 10
-178.0353365385
 20
-59.3109775641
 10
-178.1815705128
 20
-59.2008012821
 10
-178.3378205128
 20
-59.106650641
 10
-178.5040865385
 20
-59.0265224359
 10
-178.6803685897
 20
-58.9604166667
 10
-178.8646634615
 20
-58.9103365385
 10
-179.058974359
 20
-58.8742788462
 10
-179.263301282
 20
-58.8522435897
 10
-179.4756410256
 20
-58.8442307692
 10
-179.4756410256
 20
-58.8442307692
 10
-179.8161858974
 20
-58.8662660256
 10
-180.1346955128
 20
-58.9323717949
 10
-180.4271634615
 20
-59.0405448718
 10
-180.6975961538
 20
-59.1947916667
 10
-180.8237980769
 20
-59.2909455128
 10
-180.9439903846
 20
-59.4011217949
 10
-181.060176282
 20
-59.5253205128
 10
-181.1703525641
 20
-59.6675480769
 10
-181.278525641
 20
-59.8237980769
 10
-181.3786858974
 20
-59.9940705128
 10
-181.4748397436
 20
-60.1803685897
 10
-181.5669871795
 20
-60.3826923077
  0
LWPOLYLINE
  5
83
330
1F
100
AcDbEntity
  8
0
  6
Continuous
 62
     7
100
AcDbPolyline
 90
      106
 70
   128
 43
0.0
 10
-181.5669536591
 20
-103.2219230769
 10
-182.4644230769
 20
-103.2219230769
 10
-182.4644230769
 20
-103.2219230769
 10
-182.4403846154
 20
-102.8653525641
 10
-182.388301282
 20
-102.5248076923
 10
-182.310176282
 20
-102.2022916667
 10
-182.2020032051
 20
-101.8937980769
 10
-182.0677884615
 20
-101.6033333333
 10
-181.9055288461
 20
-101.3268910256
 10
-181.715224359
 20
-101.0684775641
 10
-181.496875
 20
-100.8260897436
 10
-181.2584935897
 20
-100.6057371795
 10
-181.0040865385
 20
-100.4154326923
 10
-180.7376602564
 20
-100.2551762821
 10
-180.4592147436
 20
-100.1229647436
 10
-180.1647435897
 20
-100.0208012821
 10
-179.8582532051
 20
-99.9466826923
 10
-179.5377403846
 20
-99.9026121795
 10
-179.2032051282
 20
-99.8885897436
 10
-179.2032051282
 20
-99.8885897436
 10
-178.8746794872
 20
-99.9026121795
 10
-178.560176282
 20
-99.9446794872
 10
-178.2637019231
 20
-100.0127884615
 10
-177.98125
 20
-100.1089423077
 10
-177.7168269231
 20
-100.2351442308
 10
-177.4684294872
 20
-100.3873878205
 10
-177.2340544872
 20
-100.5656730769
 10
-177.0177083333
 20
-100.7740064103
 10
-176.8213942308
 20
-101.0003685897
 10
-176.653125
 20
-101.2367467949
 10
-176.5088942308
 20
-101.4831410256
 10
-176.3907051282
 20
-101.7375480769
 10
-176.3005608974
 20
-102.003974359
 10
-176.2344551282
 20
-102.2804166667
 10
-176.1963942308
 20
-102.5648717949
 10
-176.1823717949
 20
-102.8613461538
 10
-176.1823717949
 20
-102.8613461538
 10
-176.2084134615
 20
-103.2780128205
 10
-176.2865384615
 20
-103.6806570513
 10
-176.4147435897
 20
-104.0692788462
 10
-176.5970352564
 20
-104.4458814103
 10
-176.7132211538
 20
-104.6381891026
 10
-176.8534455128
 20
-104.848525641
 10
-177.0177083333
 20
-105.0748878205
 10
-177.2060096154
 20
-105.3152724359
 10
-177.4203525641
 20
-105.5756891026
 10
-177.6567307692
 20
-105.8501282051
 10
-177.919150641
 20
-106.1405929487
 10
-178.2056089744
 20
-106.4490865385
 10
-178.2056089744
 20
-106.4490865385
 10
-180.7076121795
 20
-109.1193589744
 10
-180.7076121795
 20
-109.1193589744
 10
-176.0541666667
 20
-109.1193589744
 10
-176.0541666667
 20
-109.1193589744
 10
-176.0541666667
 20
-110.145
 10
-176.0541666667
 20
-110.145
 10
-182.8490384615
 20
-110.145
 10
-182.8490384615
 20
-110.145
 10
-178.9708333333
 20
-106.0063782051
 10
-178.9708333333
 20
-106.0063782051
 10
-178.6883814103
 20
-105.7099038462
 10
-178.4319711538
 20
-105.4334615385
 10
-178.2016025641
 20
-105.1770512821
 10
-177.997275641
 20
-104.9406730769
 10
-177.8189903846
 20
-104.7223237179
 10
-177.6647435897
 20
-104.5260096154
 10
-177.5385416667
 20
-104.347724359
 10
-177.4363782051
 20
-104.1894711538
 10
-177.2801282051
 20
-103.8889903846
 10
-177.1679487179
 20
-103.5804967949
 10
-177.1018429487
 20
-103.2659935897
 10
-177.0798076923
 20
-102.941474359
 10
-177.0798076923
 20
-102.941474359
 10
-177.0898237179
 20
-102.7371474359
 10
-177.1198717949
 20
-102.5408333333
 10
-177.1679487179
 20
-102.3525320513
 10
-177.2360576923
 20
-102.1702403846
 10
-177.3262019231
 20
-101.9939583333
 10
-177.434375
 20
-101.8276923077
 10
-177.5605769231
 20
-101.6674358974
 10
-177.7088141026
 20
-101.5131891026
 10
-177.8710737179
 20
-101.3729647436
 10
-178.0413461538
 20
-101.2507692308
 10
-178.2196314103
 20
-101.1486057692
 10
-178.4079326923
 20
-101.0644711538
 10
-178.60625
 20
-100.9983653846
 10
-178.8105769231
 20
-100.9522916667
 10
-179.0249198718
 20
-100.9242467949
 10
-179.2492788461
 20
-100.9142307692
 10
-179.2492788461
 20
-100.9142307692
 10
-179.4836538461
 20
-100.9242467949
 10
-179.7080128205
 20
-100.9522916667
 10
-179.9223557692
 20
-101.0003685897
 10
-180.1266826923
 20
-101.066474359
 10
-180.3209935897
 20
-101.1506089744
 10
-180.5052884615
 20
-101.254775641
 10
-180.6795673077
 20
-101.378974359
 10
-180.8438301282
 20
-101.5212019231
 10
-180.9940705128
 20
-101.6794551282
 10
-181.1262820513
 20
-101.8537339744
 10
-181.2424679487
 20
-102.0440384615
 10
-181.3426282051
 20
-102.2483653846
 10
-181.4247596154
 20
-102.4687179487
 10
-181.4888621795
 20
-102.7050961538
 10
-181.5369391026
 20
-102.9554967949
 10
-181.5669871795
 20
-103.2219230769
  0
LWPOLYLINE
  5
84
330
1F
100
AcDbEntity
  8
0
  6
Continuous
 62
     7
100
AcDbPolyline
 90
       12
 70
   128
 43
0.0
 10
-180.7235479355
 20
-142.215
 10
-178.8746794872
 20
-142.215
 10
-178.8746794872
 20
-142.215
 10
-178.8746794872
 20
-152.215
 10
-178.8746794872
 20
-152.215
 10
-179.7721153846
 20
-152.215
 10
-179.7721153846
 20
-152.215
 10
-179.7721153846
 20
-143.2406410256
 10
-179.7721153846
 20
-143.2406410256
 10
-181.3105769231
 20
-143.2406410256
 10
-181.3105769231
 20
-143.2406410256
 10
-180.7236378205
 20
-142.215
  0
LWPOLYLINE
  5
85
330
1F
100
AcDbEntity
  8
0
  6
Continuous
 62
     7
100
AcDbPolyline
 90
       16
 70
   128
 43
0.0
 10
-147.1123695374
 20
-174.391875
 10
-142.4970352564
 20
-184.391875
 10
-142.4970352564
 20
-184.391875
 10
-143.4725961538
 20
-184.391875
 10
-143.4725961538
 20
-184.391875
 10
-144.9509615385
 20
-181.1867467949
 10
-144.9509615385
 20
-181.1867467949
 10
-149.4842147436
 20
-181.1867467949
 10
-149.4842147436
 20
-181.1867467949
 10
-151.0046474359
 20
-184.391875
 10
-151.0046474359
 20
-184.391875
 10
-151.9842147436
 20
-184.391875
 10
-151.9842147436
 20
-184.391875
 10
-147.240625
 20
-174.391875
 10
-147.240625
 20
-174.391875
 10
-147.1124198718
 20
-174.391875
  0
LWPOLYLINE
  5
86
330
1F
100
AcDbEntity
  8
0
  6
Continuous
 62
     7
100
AcDbPolyline
 90
        6
 70
   128
 43
0.0
 10
-147.1865177155
 20
-176.3409935897
 10
-148.9974358974
 20
-180.1611057692
 10
-148.9974358974
 20
-180.1611057692
 10
-145.4237179487
 20
-180.1611057692
 10
-145.4237179487
 20
-180.1611057692
 10
-147.1865384615
 20
-176.3409935897
  0
LWPOLYLINE
  5
87
330
1F
100
AcDbEntity
  8
0
  6
Continuous
 62
     7
100
AcDbPolyline
 90
       62
 70
   128
 43
0.0
 10
-107.8628897667
 20
-174.391875
 10
-105.9118108974
 20
-174.391875
 10
-105.9118108974
 20
-174.391875
 10
-105.6253525641
 20
-174.3958814103
 10
-105.3569230769
 20
-174.4099038462
 10
-105.1045192308
 20
-174.4319391026
 10
-104.8701442308
 20
-174.4639903846
 10
-104.6517948718
 20
-174.5040544872
 10
-104.451474359
 20
-174.5521314103
 10
-104.2671794872
 20
-174.610224359
 10
-104.1009134615
 20
-174.6783333333
 10
-103.8004326923
 20
-174.8405929487
 10
-103.5340064103
 20
-175.0389102564
 10
-103.3016346154
 20
-175.2792948718
 10
-103.1013141026
 20
-175.5557371795
 10
-102.9410576923
 20
-175.860224359
 10
-102.826875
 20
-176.1787339744
 10
-102.7567628205
 20
-176.517275641
 10
-102.7347275641
 20
-176.8698397436
 10
-102.7347275641
 20
-176.8698397436
 10
-102.7527564103
 20
-177.2003685897
 10
-102.8088461538
 20
-177.5148717949
 10
-102.9009935897
 20
-177.8153525641
 10
-103.0291987179
 20
-178.0998076923
 10
-103.1934615385
 20
-178.3622275641
 10
-103.389775641
 20
-178.6006089744
 10
-103.624150641
 20
-178.8109455128
 10
-103.8905769231
 20
-178.9972435897
 10
-103.8905769231
 20
-178.9972435897
 10
-103.5520352564
 20
-179.1334615385
 10
-103.2535576923
 20
-179.2816987179
 10
-102.999150641
 20
-179.4419551282
 10
-102.7848076923
 20
-179.6142307692
 10
-102.6005128205
 20
-179.8005288462
 10
-102.4402564103
 20
-180.0028525641
 10
-102.3000320513
 20
-180.2272115385
 10
-102.1818429487
 20
-180.4675961538
 10
-102.0876923077
 20
-180.7240064103
 10
-102.0195833333
 20
-180.9884294872
 10
-101.9795192308
 20
-181.266875
 10
-101.9654967949
 20
-181.5533333333
 10
-101.9654967949
 20
-181.5533333333
 10
-101.9795192308
 20
-181.8458012821
 10
-102.0195833333
 20
-182.12625
 10
-102.0876923077
 20
-182.3946794872
 10
-102.1818429487
 20
-182.6510897436
 10
-102.3040384615
 20
-182.8974839744
 10
-102.4542788462
 20
-183.1338621795
 10
-102.6305608974
 20
-183.3562179487
 10
-102.8328846154
 20
-183.5685576923
 10
-103.0592467949
 20
-183.7608653846
 10
-103.3036378205
 20
-183.9291346154
 10
-103.5660576923
 20
-184.0693589744
 10
-103.8465064103
 20
-184.1855448718
 10
-104.1469871795
 20
-184.2756891026
 10
-104.4654967949
 20
-184.3397916667
 10
-104.8020352564
 20
-184.3798557692
 10
-105.1586057692
 20
-184.391875
 10
-105.1586057692
 20
-184.391875
 10
-107.8629326923
 20
-184.391875
 10
-107.8629326923
 20
-184.391875
 10
-107.8629326923
 20
-174.391875
  0
LWPOLYLINE
  5
88
330
1F
100
AcDbEntity
  8
0
  6
Continuous
 62
     7
100
AcDbPolyline
 90
       40
 70
   128
 43
0.0
 10
-106.965482235
 20
-175.4175160256
 10
-106.9654967949
 20
-178.6226442308
 10
-106.9654967949
 20
-178.6226442308
 10
-106.3625320513
 20
-178.6226442308
 10
-106.3625320513
 20
-178.6226442308
 10
-106.0981089744
 20
-178.6186378205
 10
-105.8517147436
 20
-178.610625
 10
-105.623349359
 20
-178.594599359
 10
-105.4110096154
 20
-178.5745673077
 10
-105.2207051282
 20
-178.5465224359
 10
-105.046426282
 20
-178.5124679487
 10
-104.890176282
 20
-178.4744070513
 10
-104.7519551282
 20
-178.4283333333
 10
-104.5075641026
 20
-178.3181570513
 10
-104.2892147436
 20
-178.1779326923
 10
-104.0989102564
 20
-178.0116666667
 10
-103.9346474359
 20
-177.8173557692
 10
-103.8024358974
 20
-177.6030128205
 10
-103.7082852564
 20
-177.3746474359
 10
-103.6501923077
 20
-177.1382692308
 10
-103.6321634615
 20
-176.8878685897
 10
-103.6321634615
 20
-176.8878685897
 10
-103.640176282
 20
-176.7216025641
 10
-103.6642147436
 20
-176.563349359
 10
-103.7042788462
 20
-176.4151121795
 10
-103.7583653846
 20
-176.2748878205
 10
-103.8304807692
 20
-176.1446794872
 10
-103.9166185897
 20
-176.0244871795
 10
-104.0207852564
 20
-175.9123076923
 10
-104.138974359
 20
-175.8101442308
 10
-104.2751923077
 20
-175.7179967949
 10
-104.4294391026
 20
-175.6378685897
 10
-104.6017147436
 20
-175.5717628205
 10
-104.7940224359
 20
-175.5156730769
 10
-105.0043589744
 20
-175.4736057692
 10
-105.232724359
 20
-175.4415544872
 10
-105.4811217949
 20
-175.423525641
 10
-105.7475480769
 20
-175.4175160256
 10
-105.7475480769
 20
-175.4175160256
 10
-106.9654967949
 20
-175.4175160256
  0
LWPOLYLINE
  5
89
330
1F
100
AcDbEntity
  8
0
  6
Continuous
 62
     7
100
AcDbPolyline
 90
       45
 70
   128
 43
0.0
 10
-106.965482235
 20
-179.6482852564
 10
-106.9654967949
 20
-183.3662339744
 10
-106.9654967949
 20
-183.3662339744
 10
-105.6874519231
 20
-183.3662339744
 10
-105.6874519231
 20
-183.3662339744
 10
-105.4130128205
 20
-183.3622275641
 10
-105.1586057692
 20
-183.3542147436
 10
-104.9242307692
 20
-183.3381891026
 10
-104.7058814103
 20
-183.314150641
 10
-104.5095673077
 20
-183.2861057692
 10
-104.3292788462
 20
-183.2500480769
 10
-104.1690224359
 20
-183.2079807692
 10
-104.0287980769
 20
-183.1599038462
 10
-103.7783974359
 20
-183.0417147436
 10
-103.5540384615
 20
-182.8934775641
 10
-103.3557211538
 20
-182.7171955128
 10
-103.1834455128
 20
-182.5108653846
 10
-103.0432211538
 20
-182.2845032051
 10
-102.9430608974
 20
-182.0501282051
 10
-102.8829647436
 20
-181.8057371795
 10
-102.8629326923
 20
-181.5533333333
 10
-102.8629326923
 20
-181.5533333333
 10
-102.8689423077
 20
-181.3950801282
 10
-102.8909775641
 20
-181.2408333333
 10
-102.9250320513
 20
-181.0925961538
 10
-102.9711057692
 20
-180.9483653846
 10
-103.0332051282
 20
-180.8121474359
 10
-103.1093269231
 20
-180.6779326923
 10
-103.1974679487
 20
-180.5497275641
 10
-103.2996314103
 20
-180.4275320513
 10
-103.5380128205
 20
-180.2051762821
 10
-103.8184615385
 20
-180.0208814103
 10
-104.138974359
 20
-179.8746474359
 10
-104.499551282
 20
-179.766474359
 10
-104.499551282
 20
-179.766474359
 10
-104.6457852564
 20
-179.7384294872
 10
-104.8180608974
 20
-179.7143910256
 10
-105.014375
 20
-179.6943589744
 10
-105.2347275641
 20
-179.6783333333
 10
-105.4811217949
 20
-179.6643108974
 10
-105.7535576923
 20
-179.6562980769
 10
-106.0500320513
 20
-179.6502884615
 10
-106.3705448718
 20
-179.6482852564
 10
-106.3705448718
 20
-179.6482852564
 10
-106.9654967949
 20
-179.6482852564
  0
LWPOLYLINE
  5
8A
330
1F
100
AcDbEntity
  8
0
  6
Continuous
 62
     7
100
AcDbPolyline
 90
      145
 70
   128
 43
0.0
 10
-58.2288205624
 20
-176.2268108974
 10
-59.0140865385
 20
-176.8277724359
 10
-59.0140865385
 20
-176.8277724359
 10
-59.1843589744
 20
-176.6294551282
 10
-59.3626442308
 20
-176.4431570513
 10
-59.5489423077
 20
-176.2688782051
 10
-59.7432532051
 20
-176.1066185897
 10
-59.9475801282
 20
-175.9583814103
 10
-60.1579166667
 20
-175.8221634615
 10
-60.3782692308
 20
-175.6979647436
 10
-60.6066346154
 20
-175.5857852564
 10
-61.0833974359
 20
-175.3994871795
 10
-61.5821955128
 20
-175.267275641
 10
-62.1030288462
 20
-175.1871474359
 10
-62.647900641
 20
-175.1611057692
 10
-62.647900641
 20
-175.1611057692
 10
-62.9483814103
 20
-175.1691185897
 10
-63.2448557692
 20
-175.1971634615
 10
-63.5353205128
 20
-175.2412339744
 10
-63.8177724359
 20
-175.3033333333
 10
-64.0982211538
 20
-175.3834615385
 10
-64.3706570513
 20
-175.4796153846
 10
-64.6370833333
 20
-175.5958012821
 10
-64.8995032051
 20
-175.7280128205
 10
-65.1519070513
 20
-175.87625
 10
-65.3882852564
 20
-176.0365064103
 10
-65.6106410256
 20
-176.2087820513
 10
-65.818974359
 20
-176.3930769231
 10
-66.0132852564
 20
-176.5893910256
 10
-66.1915705128
 20
-176.797724359
 10
-66.3558333333
 20
-177.0200801282
 10
-66.5060737179
 20
-177.2524519231
 10
-66.6402884615
 20
-177.4948397436
 10
-66.7544711538
 20
-177.7452403846
 10
-66.8526282051
 20
-178.001650641
 10
-66.9327564103
 20
-178.2680769231
 10
-66.9948557692
 20
-178.5405128205
 10
-67.038926282
 20
-178.8189583333
 10
-67.0669711538
 20
-179.1074198718
 10
-67.0749839744
 20
-179.4018910256
 10
-67.0749839744
 20
-179.4018910256
 10
-67.0549519231
 20
-179.844599359
 10
-66.9948557692
 20
-180.267275641
 10
-66.8966987179
 20
-180.6719230769
 10
-66.756474359
 20
-181.0565384615
 10
-66.5781891026
 20
-181.4251282051
 10
-66.3578365385
 20
-181.7736858974
 10
-66.0994230769
 20
-182.1042147436
 10
-65.8009455128
 20
-182.4147115385
 10
-65.4724198718
 20
-182.6971634615
 10
-65.1218589744
 20
-182.9435576923
 10
-64.7512660256
 20
-183.1498878205
 10
-64.3606410256
 20
-183.3201602564
 10
-63.9479807692
 20
-183.4523717949
 10
-63.5152884615
 20
-183.5465224359
 10
-63.0605608974
 20
-183.6046153846
 10
-62.585801282
 20
-183.6226442308
 10
-62.585801282
 20
-183.6226442308
 10
-62.0629647436
 20
-183.5966025641
 10
-61.5621634615
 20
-183.5184775641
 10
-61.0833974359
 20
-183.3882692308
 10
-60.6246634615
 20
-183.2059775641
 10
-60.1899679487
 20
-182.9716025641
 10
-59.7753044872
 20
-182.6851442308
 10
-59.3846794872
 20
-182.3466025641
 10
-59.0140865385
 20
-181.9559775641
 10
-59.0140865385
 20
-181.9559775641
 10
-58.2288301282
 20
-182.5509294872
 10
-58.2288301282
 20
-182.5509294872
 10
-58.4211378205
 20
-182.7933173077
 10
-58.6254647436
 20
-183.0236858974
 10
-58.8398076923
 20
-183.2380288462
 10
-59.0661698718
 20
-183.438349359
 10
-59.304551282
 20
-183.626650641
 10
-59.5549519231
 20
-183.7989262821
 10
-59.8173717949
 20
-183.9571794872
 10
-60.0898076923
 20
-184.1014102564
 10
-60.3722596154
 20
-184.2296153846
 10
-60.662724359
 20
-184.3397916667
 10
-60.9612019231
 20
-184.4339423077
 10
-61.2696955128
 20
-184.5120673077
 10
-61.5841987179
 20
-184.5721634615
 10
-61.9087179487
 20
-184.6142307692
 10
-62.2392467949
 20
-184.6402724359
 10
-62.5797916667
 20
-184.6482852564
 10
-62.5797916667
 20
-184.6482852564
 10
-62.9023076923
 20
-184.642275641
 10
-63.2168108974
 20
-184.6202403846
 10
-63.5212980769
 20
-184.5861858974
 10
-63.8177724359
 20
-184.5381089744
 10
-64.1062339744
 20
-184.4780128205
 10
-64.3846794872
 20
-184.4018910256
 10
-64.6551121795
 20
-184.31375
 10
-64.9175320513
 20
-184.2115865385
 10
-65.1719391026
 20
-184.095400641
 10
-65.4163301282
 20
-183.9651923077
 10
-65.6527083333
 20
-183.8209615385
 10
-65.8810737179
 20
-183.6647115385
 10
-66.0994230769
 20
-183.4944391026
 10
-66.3097596154
 20
-183.3101442308
 10
-66.5120833333
 20
-183.1118269231
 10
-66.7043910256
 20
-182.8994871795
 10
-66.7043910256
 20
-182.8994871795
 10
-67.0008653846
 20
-182.5208814103
 10
-67.2592788462
 20
-182.1222435897
 10
-67.4776282051
 20
-181.7055769231
 10
-67.6559134615
 20
-181.2688782051
 10
-67.7941346154
 20
-180.814150641
 10
-67.8922916667
 20
-180.3393910256
 10
-67.9523878205
 20
-179.8466025641
 10
-67.9724198718
 20
-179.3337820513
 10
-67.9724198718
 20
-179.3337820513
 10
-67.9483814103
 20
-178.7949198718
 10
-67.8762660256
 20
-178.2780929487
 10
-67.7560737179
 20
-177.7833012821
 10
-67.5878044872
 20
-177.3105448718
 10
-67.3734615385
 20
-176.8598237179
 10
-67.1090384615
 20
-176.4291346154
 10
-66.7985416667
 20
-176.0224839744
 10
-66.4379647436
 20
-175.6358653846
 10
-66.0413301282
 20
-175.2833012821
 10
-65.6226602564
 20
-174.9788141026
 10
-65.1779487179
 20
-174.7224038462
 10
-64.7091987179
 20
-174.5100641026
 10
-64.2164102564
 20
-174.3458012821
 10
-63.6995833333
 20
-174.2296153846
 10
-63.1567147436
 20
-174.1595032051
 10
-62.5918108974
 20
-174.1354647436
 10
-62.5918108974
 20
-174.1354647436
 10
-62.2472596154
 20
-174.1434775641
 10
-61.9107211538
 20
-174.1695192308
 10
-61.5841987179
 20
-174.2135897436
 10
-61.2656891026
 20
-174.2736858974
 10
-60.9551923077
 20
-174.3498076923
 10
-60.6527083333
 20
-174.4459615385
 10
-60.3582371795
 20
-174.5581410256
 10
-60.0737820513
 20
-174.6863461538
 10
-59.7993429487
 20
-174.8305769231
 10
-59.5369230769
 20
-174.9888301282
 10
-59.2865224359
 20
-175.1611057692
 10
-59.0501442308
 20
-175.345400641
 10
-58.8257852564
 20
-175.5457211538
 10
-58.6134455128
 20
-175.7580608974
 10
-58.4151282051
 20
-175.9864262821
 10
-58.2288301282
 20
-176.2268108974
  0
LWPOLYLINE
  5
8B
330
1F
100
AcDbEntity
  8
0
  6
Continuous
 62
     7
100
AcDbPolyline
 90
       57
 70
   128
 43
0.0
 10
-24.8767733574
 20
-184.391875
 10
-24.8767788462
 20
-174.391875
 10
-24.8767788462
 20
-174.391875
 10
-22.8575480769
 20
-174.391875
 10
-22.8575480769
 20
-174.391875
 10
-22.3307051282
 20
-174.3978846154
 10
-21.8399198718
 20
-174.4139102564
 10
-21.3871955128
 20
-174.4419551282
 10
-20.9705288462
 20
-174.4820192308
 10
-20.593926282
 20
-174.532099359
 10
-20.2533814103
 20
-174.5941987179
 10
-19.9508974359
 20
-174.6683173077
 10
-19.6844711538
 20
-174.7524519231
 10
-19.6844711538
 20
-174.7524519231
 10
-19.3399198718
 20
-174.8906730769
 10
-19.015400641
 20
-175.0529326923
 10
-18.7089102564
 20
-175.2392307692
 10
-18.4224519231
 20
-175.4475641026
 10
-18.156025641
 20
-175.6819391026
 10
-17.9076282051
 20
-175.9363461538
 10
-17.6792628205
 20
-176.2167948718
 10
-17.4709294872
 20
-176.5192788462
 10
-17.2826282051
 20
-176.8417948718
 10
-17.1203685897
 20
-177.1783333333
 10
-16.984150641
 20
-177.5308974359
 10
-16.8719711538
 20
-177.8974839744
 10
-16.7838301282
 20
-178.2800961538
 10
-16.7217307692
 20
-178.6787339744
 10
-16.6836698718
 20
-179.0913942308
 10
-16.671650641
 20
-179.5180769231
 10
-16.671650641
 20
-179.5180769231
 10
-16.6816666667
 20
-179.8886698718
 10
-16.7117147436
 20
-180.2472435897
 10
-16.7597916667
 20
-180.5937980769
 10
-16.8299038462
 20
-180.9303365385
 10
-16.9180448718
 20
-181.2548557692
 10
-17.0282211538
 20
-181.5693589744
 10
-17.156426282
 20
-181.8718429487
 10
-17.3046634615
 20
-182.1623076923
 10
-17.468926282
 20
-182.43875
 10
-17.6432051282
 20
-182.6951602564
 10
-17.8315064103
 20
-182.9355448718
 10
-18.0298237179
 20
-183.1538942308
 10
-18.2421634615
 20
-183.3562179487
 10
-18.4645192308
 20
-183.5385096154
 10
-18.7008974359
 20
-183.7027724359
 10
-18.9472916667
 20
-183.8490064103
 10
-19.2117147436
 20
-183.9772115385
 10
-19.5021794872
 20
-184.0873878205
 10
-19.8186858974
 20
-184.1795352564
 10
-20.1592307692
 20
-184.2556570513
 10
-20.5258173077
 20
-184.3157532051
 10
-20.9184455128
 20
-184.3578205128
 10
-21.3351121795
 20
-184.3838621795
 10
-21.7778205128
 20
-184.391875
 10
-21.7778205128
 20
-184.391875
 10
-24.8767788462
 20
-184.391875
  0
LWPOLYLINE
  5
8C
330
1F
100
AcDbEntity
  8
0
  6
Continuous
 62
     7
100
AcDbPolyline
 90
       58
 70
   128
 43
0.0
 10
-23.9793360233
 20
-183.3662339744
 10
-22.8315064103
 20
-183.3662339744
 10
-22.8315064103
 20
-183.3662339744
 10
-22.3367147436
 20
-183.3622275641
 10
-21.8799839744
 20
-183.3502083333
 10
-21.4633173077
 20
-183.3301762821
 10
-21.0867147436
 20
-183.3021314103
 10
-20.7481730769
 20
-183.2660737179
 10
-20.4496955128
 20
-183.2240064103
 10
-20.1912820513
 20
-183.1719230769
 10
-19.9729326923
 20
-183.1118269231
 10
-19.9729326923
 20
-183.1118269231
 10
-19.7004967949
 20
-183.0116666667
 10
-19.4420833333
 20
-182.8954807692
 10
-19.1996955128
 20
-182.7592628205
 10
-18.9733333333
 20
-182.6070192308
 10
-18.7609935897
 20
-182.4347435897
 10
-18.562676282
 20
-182.2444391026
 10
-18.3803846154
 20
-182.0381089744
 10
-18.2121153846
 20
-181.8117467949
 10
-18.061875
 20
-181.5693589744
 10
-17.9316666667
 20
-181.3149519231
 10
-17.8194871795
 20
-181.048525641
 10
-17.7293429487
 20
-180.7680769231
 10
-17.6592307692
 20
-180.4736057692
 10
-17.609150641
 20
-180.1671153846
 10
-17.5791025641
 20
-179.8486057692
 10
-17.5690865385
 20
-179.5160737179
 10
-17.5690865385
 20
-179.5160737179
 10
-17.5791025641
 20
-179.1655128205
 10
-17.6131570513
 20
-178.828974359
 10
-17.6672435897
 20
-178.5064583333
 10
-17.7433653846
 20
-178.1959615385
 10
-17.8415224359
 20
-177.8974839744
 10
-17.9617147436
 20
-177.6130288462
 10
-18.1019391026
 20
-177.3405929487
 10
-18.2662019231
 20
-177.0821794872
 10
-18.4484935897
 20
-176.8397916667
 10
-18.6488141026
 20
-176.6174358974
 10
-18.8651602564
 20
-176.4151121795
 10
-19.0975320513
 20
-176.2308173077
 10
-19.3479326923
 20
-176.0685576923
 10
-19.6163621795
 20
-175.9243269231
 10
-19.9008173077
 20
-175.8021314103
 10
-20.203301282
 20
-175.6979647436
 10
-20.203301282
 20
-175.6979647436
 10
-20.4557051282
 20
-175.6318589744
 10
-20.7441666667
 20
-175.5757692308
 10
-21.0726923077
 20
-175.5276923077
 10
-21.437275641
 20
-175.4876282051
 10
-21.8399198718
 20
-175.4575801282
 10
-22.280625
 20
-175.4355448718
 10
-22.7593910256
 20
-175.4215224359
 10
-23.2762179487
 20
-175.4175160256
 10
-23.2762179487
 20
-175.4175160256
 10
-23.9793429487
 20
-175.4175160256
 10
-23.9793429487
 20
-175.4175160256
 10
-23.9793429487
 20
-183.3662339744
  0
LWPOLYLINE
  5
8D
330
1F
100
AcDbEntity
  8
0
  6
Continuous
 62
     7
100
AcDbPolyline
 90
       24
 70
   128
 43
0.0
 10
18.6034739017
 20
-174.391875
 10
24.2445032051
 20
-174.391875
 10
24.2445032051
 20
-174.391875
 10
24.2445032051
 20
-175.4175160256
 10
24.2445032051
 20
-175.4175160256
 10
19.5009134615
 20
-175.4175160256
 10
19.5009134615
 20
-175.4175160256
 10
19.5009134615
 20
-178.4944391026
 10
19.5009134615
 20
-178.4944391026
 10
24.2445032051
 20
-178.4944391026
 10
24.2445032051
 20
-178.4944391026
 10
24.2445032051
 20
-179.5200801282
 10
24.2445032051
 20
-179.5200801282
 10
19.5009134615
 20
-179.5200801282
 10
19.5009134615
 20
-179.5200801282
 10
19.5009134615
 20
-183.3662339744
 10
19.5009134615
 20
-183.3662339744
 10
24.2445032051
 20
-183.3662339744
 10
24.2445032051
 20
-183.3662339744
 10
24.2445032051
 20
-184.391875
 10
24.2445032051
 20
-184.391875
 10
18.6034775641
 20
-184.391875
 10
18.6034775641
 20
-184.391875
 10
18.6034775641
 20
-174.391875
  0
LWPOLYLINE
  5
8E
330
1F
100
AcDbEntity
  8
0
  6
Continuous
 62
     7
100
AcDbPolyline
 90
       20
 70
   128
 43
0.0
 10
61.0580742359
 20
-174.391875
 10
65.9298878205
 20
-174.391875
 10
65.9298878205
 20
-174.391875
 10
65.9298878205
 20
-175.4175160256
 10
65.9298878205
 20
-175.4175160256
 10
61.9555288462
 20
-175.4175160256
 10
61.9555288462
 20
-175.4175160256
 10
61.9555288462
 20
-178.4944391026
 10
61.9555288462
 20
-178.4944391026
 10
65.9298878205
 20
-178.4944391026
 10
65.9298878205
 20
-178.4944391026
 10
65.9298878205
 20
-179.5200801282
 10
65.9298878205
 20
-179.5200801282
 10
61.9555288462
 20
-179.5200801282
 10
61.9555288462
 20
-179.5200801282
 10
61.9555288462
 20
-184.391875
 10
61.9555288462
 20
-184.391875
 10
61.0580929487
 20
-184.391875
 10
61.0580929487
 20
-184.391875
 10
61.0580929487
 20
-174.391875
  0
LWPOLYLINE
  5
8F
330
1F
100
AcDbEntity
  8
0
  6
Continuous
 62
     7
100
AcDbPolyline
 90
      169
 70
   128
 43
0.0
 10
109.7947359085
 20
-176.0986057692
 10
109.0255288462
 20
-176.8277724359
 10
109.0255288462
 20
-176.8277724359
 10
108.600849359
 20
-176.4431570513
 10
108.1541346154
 20
-176.1066185897
 10
107.6893910256
 20
-175.8221634615
 10
107.2026121795
 20
-175.5857852564
 10
106.709823718
 20
-175.3994871795
 10
106.2250480769
 20
-175.267275641
 10
105.7442788462
 20
-175.1871474359
 10
105.2715224359
 20
-175.1611057692
 10
105.2715224359
 20
-175.1611057692
 10
104.9810576923
 20
-175.1691185897
 10
104.6925961538
 20
-175.1971634615
 10
104.4101442308
 20
-175.2412339744
 10
104.1296955128
 20
-175.3033333333
 10
103.85125
 20
-175.3834615385
 10
103.5788141026
 20
-175.4816185897
 10
103.3083814103
 20
-175.5978044872
 10
103.0419551282
 20
-175.7320192308
 10
102.7855448718
 20
-175.8802564103
 10
102.5431570513
 20
-176.0425160256
 10
102.3147916667
 20
-176.2167948718
 10
102.1024519231
 20
-176.4050961538
 10
101.9061378205
 20
-176.6054166667
 10
101.7218429487
 20
-176.8177564103
 10
101.553573718
 20
-177.0441185897
 10
101.4013301282
 20
-177.2825
 10
101.2651121795
 20
-177.5288942308
 10
101.1469230769
 20
-177.7772916667
 10
101.0467628205
 20
-178.0316987179
 10
100.9666346154
 20
-178.2881089744
 10
100.9025320513
 20
-178.5465224359
 10
100.8564583333
 20
-178.8109455128
 10
100.8304166667
 20
-179.0773717949
 10
100.820400641
 20
-179.3478044872
 10
100.820400641
 20
-179.3478044872
 10
100.8304166667
 20
-179.6242467949
 10
100.8584615385
 20
-179.8986858974
 10
100.9085416667
 20
-180.1691185897
 10
100.976650641
 20
-180.4355448718
 10
101.0627884615
 20
-180.6999679487
 10
101.1689583333
 20
-180.9603846154
 10
101.2951602564
 20
-181.2167948718
 10
101.4413942308
 20
-181.4691987179
 10
101.6036538462
 20
-181.7135897436
 10
101.7819391026
 20
-181.9439583333
 10
101.9742467949
 20
-182.1623076923
 10
102.1805769231
 20
-182.3646314103
 10
102.4029326923
 20
-182.5569391026
 10
102.6393108974
 20
-182.7332211538
 10
102.8917147436
 20
-182.8974839744
 10
103.1581410256
 20
-183.047724359
 10
103.4345833333
 20
-183.1819391026
 10
103.7190384615
 20
-183.3001282051
 10
104.0095032051
 20
-183.3982852564
 10
104.3059775641
 20
-183.4784134615
 10
104.6104647436
 20
-183.5425160256
 10
104.9209615385
 20
-183.5865865385
 10
105.2374679487
 20
-183.6146314103
 10
105.5599839744
 20
-183.6226442308
 10
105.5599839744
 20
-183.6226442308
 10
105.9486057692
 20
-183.6086217949
 10
106.3212019231
 20
-183.5685576923
 10
106.679775641
 20
-183.5024519231
 10
107.022323718
 20
-183.4083012821
 10
107.3488461538
 20
-183.2881089744
 10
107.6613461538
 20
-183.141875
 10
107.9578205128
 20
-182.9675961538
 10
108.2402724359
 20
-182.767275641
 10
108.5006891026
 20
-182.5449198718
 10
108.7330608974
 20
-182.3065384615
 10
108.9373878205
 20
-182.0521314103
 10
109.1136698718
 20
-181.7837019231
 10
109.2619070513
 20
-181.4972435897
 10
109.382099359
 20
-181.1967628205
 10
109.4742467949
 20
-180.8782532051
 10
109.538349359
 20
-180.5457211538
 10
109.538349359
 20
-180.5457211538
 10
106.2050160256
 20
-180.5457211538
 10
106.2050160256
 20
-180.5457211538
 10
106.2050160256
 20
-179.5200801282
 10
106.2050160256
 20
-179.5200801282
 10
110.4357852564
 20
-179.5200801282
 10
110.4357852564
 20
-179.5200801282
 10
110.4117467949
 20
-180.0929967949
 10
110.3456410256
 20
-180.6378685897
 10
110.2374679487
 20
-181.1506891026
 10
110.0892307692
 20
-181.6334615385
 10
109.8989262821
 20
-182.0861858974
 10
109.6665544872
 20
-182.5088621795
 10
109.3921153846
 20
-182.8994871795
 10
109.0776121795
 20
-183.2620673077
 10
108.7270512821
 20
-183.5865865385
 10
108.3484455128
 20
-183.8690384615
 10
107.9417948718
 20
-184.1074198718
 10
107.507099359
 20
-184.3017307692
 10
107.0423557692
 20
-184.453974359
 10
106.5515705128
 20
-184.5621474359
 10
106.0307371795
 20
-184.62625
 10
105.4818589744
 20
-184.6482852564
 10
105.4818589744
 20
-184.6482852564
 10
105.1433173077
 20
-184.6402724359
 10
104.8147916667
 20
-184.6182371795
 10
104.4962820513
 20
-184.5821794872
 10
104.1857852564
 20
-184.5300961538
 10
103.8833012821
 20
-184.4639903846
 10
103.5908333333
 20
-184.3818589744
 10
103.3063782051
 20
-184.2857051282
 10
103.0299358974
 20
-184.1755288462
 10
102.7635096154
 20
-184.0493269231
 10
102.507099359
 20
-183.9091025641
 10
102.2587019231
 20
-183.7548557692
 10
102.0183173077
 20
-183.5845833333
 10
101.787948718
 20
-183.4002884615
 10
101.5655929487
 20
-183.1999679487
 10
101.3532532051
 20
-182.985625
 10
101.1489262821
 20
-182.7572596154
 10
101.1489262821
 20
-182.7572596154
 10
100.8624679487
 20
-182.3866666667
 10
100.6120673077
 20
-182.0000480769
 10
100.4017307692
 20
-181.6014102564
 10
100.2294551282
 20
-181.1867467949
 10
100.0952403846
 20
-180.7580608974
 10
99.9990865385
 20
-180.3153525641
 10
99.9429967949
 20
-179.8586217949
 10
99.9229647436
 20
-179.3878685897
 10
99.9229647436
 20
-179.3878685897
 10
99.9329807692
 20
-179.0353044872
 10
99.9670352564
 20
-178.68875
 10
100.0211217949
 20
-178.3482051282
 10
100.0972435897
 20
-178.0156730769
 10
100.195400641
 20
-177.6871474359
 10
100.3155929487
 20
-177.3666346154
 10
100.4578205128
 20
-177.0501282051
 10
100.6220833333
 20
-176.7416346154
 10
100.8063782051
 20
-176.4431570513
 10
101.0046955128
 20
-176.1627083333
 10
101.2210416667
 20
-175.8982852564
 10
101.4534134615
 20
-175.6498878205
 10
101.7018108974
 20
-175.4195192308
 10
101.9662339744
 20
-175.2051762821
 10
102.2466826923
 20
-175.0068589744
 10
102.5431570513
 20
-174.8265705128
 10
102.8536538462
 20
-174.6643108974
 10
103.1721634615
 20
-174.5240865385
 10
103.5026923077
 20
-174.4058974359
 10
103.8432371795
 20
-174.3077403846
 10
104.1917948718
 20
-174.2336217949
 10
104.5523717949
 20
-174.1795352564
 10
104.9209615385
 20
-174.1454807692
 10
105.3015705128
 20
-174.1354647436
 10
105.3015705128
 20
-174.1354647436
 10
105.6120673077
 20
-174.1434775641
 10
105.9165544872
 20
-174.1655128205
 10
106.2170352564
 20
-174.2015705128
 10
106.5135096154
 20
-174.251650641
 10
106.803974359
 20
-174.3177564103
 10
107.0904326923
 20
-174.3978846154
 10
107.3728846154
 20
-174.4920352564
 10
107.6493269231
 20
-174.6022115385
 10
107.9237660256
 20
-174.7284134615
 10
108.1962019231
 20
-174.8706410256
 10
108.4666346154
 20
-175.0308974359
 10
108.7350641026
 20
-175.2091826923
 10
109.0034935897
 20
-175.4054967949
 10
109.2679166667
 20
-175.6198397436
 10
109.5323397436
 20
-175.8502083333
 10
109.7947596154
 20
-176.0986057692
  0
LWPOLYLINE
  5
90
330
1F
100
AcDbEntity
  8
0
  6
Continuous
 62
     7
100
AcDbPolyline
 90
       24
 70
   128
 43
0.0
 10
143.7877416611
 20
-174.391875
 10
144.6852724359
 20
-174.391875
 10
144.6852724359
 20
-174.391875
 10
144.6852724359
 20
-178.4944391026
 10
144.6852724359
 20
-178.4944391026
 10
149.8134775641
 20
-178.4944391026
 10
149.8134775641
 20
-178.4944391026
 10
149.8134775641
 20
-174.391875
 10
149.8134775641
 20
-174.391875
 10
150.7109134615
 20
-174.391875
 10
150.7109134615
 20
-174.391875
 10
150.7109134615
 20
-184.391875
 10
150.7109134615
 20
-184.391875
 10
149.8134775641
 20
-184.391875
 10
149.8134775641
 20
-184.391875
 10
149.8134775641
 20
-179.5200801282
 10
149.8134775641
 20
-179.5200801282
 10
144.6852724359
 20
-179.5200801282
 10
144.6852724359
 20
-179.5200801282
 10
144.6852724359
 20
-184.391875
 10
144.6852724359
 20
-184.391875
 10
143.7878365385
 20
-184.391875
 10
143.7878365385
 20
-184.391875
 10
143.7878365385
 20
-174.391875
  0
ENDSEC
  0
SECTION
  2
OBJECTS
  0
DICTIONARY
  5
C
330
0
100
AcDbDictionary
281
     1
  3
ACAD_GROUP
350
D
  3
ACAD_LAYOUT
350
1A
  3
ACAD_MLINESTYLE
350
17
  3
ACAD_PLOTSETTINGS
350
19
  3
ACAD_PLOTSTYLENAME
350
E
  3
ACAD_SCALELIST
350
47
  3
DWGPROPS
350
91
  0
DICTIONARY
  5
D
102
{ACAD_REACTORS
330
C
102
}
330
C
100
AcDbDictionary
281
     1
  0
DICTIONARY
  5
1A
102
{ACAD_REACTORS
330
C
102
}
330
C
100
AcDbDictionary
281
     1
  3
Layout1
350
1E
  3
Layout2
350
26
  3
Model
350
22
  0
DICTIONARY
  5
17
102
{ACAD_REACTORS
330
C
102
}
330
C
100
AcDbDictionary
281
     1
  3
Standard
350
18
  0
DICTIONARY
  5
19
102
{ACAD_REACTORS
330
C
102
}
330
C
100
AcDbDictionary
281
     1
  0
ACDBDICTIONARYWDFLT
  5
E
102
{ACAD_REACTORS
330
C
102
}
330
C
100
AcDbDictionary
281
     1
  3
Normal
350
F
100
AcDbDictionaryWithDefault
340
F
  0
DICTIONARY
  5
47
102
{ACAD_REACTORS
330
C
102
}
330
C
100
AcDbDictionary
281
     1
  3
A0
350
48
  3
A1
350
49
  3
A2
350
4A
  3
A3
350
4B
  3
A4
350
4C
  3
A5
350
4D
  3
A6
350
4E
  3
A7
350
4F
  3
A8
350
50
  3
A9
350
51
  3
B0
350
52
  3
B1
350
53
  3
B2
350
54
  3
B3
350
55
  3
B4
350
56
  3
B5
350
57
  3
B6
350
58
  0
XRECORD
  5
91
102
{ACAD_REACTORS
330
C
102
}
330
C
100
AcDbXrecord
280
     1
  1
DWGPROPS COOKIE
  2

  3

  4

  6

  7

  8
casperw
  9

300
=
301
=
302
=
303
=
304
=
305
=
306
=
307
=
308
=
309
=
 40
0.0
 41
2459966.922921713
 42
2459966.923687315
  1

 90
        0
  0
LAYOUT
  5
1E
102
{ACAD_REACTORS
330
1A
102
}
330
1A
100
AcDbPlotSettings
  1

  2
none_device
  4

  6

 40
0.0
 41
0.0
 42
0.0
 43
0.0
 44
0.0
 45
0.0
 46
0.0
 47
0.0
 48
0.0
 49
0.0
140
0.0
141
0.0
142
1.0
143
1.0
 70
   688
 72
     1
 73
     0
 74
     5
  7

 75
    16
147
1.0
148
0.0
149
0.0
100
AcDbLayout
  1
Layout1
 70
     1
 71
     1
 10
0.0
 20
0.0
 11
420.0
 21
297.0
 12
0.0
 22
0.0
 32
0.0
 14
1.0000000000E+20
 24
1.0000000000E+20
 34
1.0000000000E+20
 15
-1.0000000000E+20
 25
-1.0000000000E+20
 35
-1.0000000000E+20
146
0.0
 13
0.0
 23
0.0
 33
0.0
 16
1.0
 26
0.0
 36
0.0
 17
0.0
 27
1.0
 37
0.0
 76
     0
330
1B
  0
LAYOUT
  5
26
102
{ACAD_REACTORS
330
1A
102
}
330
1A
100
AcDbPlotSettings
  1

  2
none_device
  4

  6

 40
0.0
 41
0.0
 42
0.0
 43
0.0
 44
0.0
 45
0.0
 46
0.0
 47
0.0
 48
0.0
 49
0.0
140
0.0
141
0.0
142
1.0
143
1.0
 70
   688
 72
     1
 73
     0
 74
     5
  7

 75
    16
147
1.0
148
0.0
149
0.0
100
AcDbLayout
  1
Layout2
 70
     1
 71
     2
 10
0.0
 20
0.0
 11
0.0
 21
0.0
 12
0.0
 22
0.0
 32
0.0
 14
0.0
 24
0.0
 34
0.0
 15
0.0
 25
0.0
 35
0.0
146
0.0
 13
0.0
 23
0.0
 33
0.0
 16
1.0
 26
0.0
 36
0.0
 17
0.0
 27
1.0
 37
0.0
 76
     0
330
23
  0
LAYOUT
  5
22
102
{ACAD_REACTORS
330
1A
102
}
330
1A
100
AcDbPlotSettings
  1

  2
none_device
  4
ANSI_A_(11.00_x_8.50_Inches)
  6

 40
6.35
 41
19.05
 42
6.35000508
 43
19.05000254
 44
279.4
 45
215.9
 46
133.34999746
 47
88.89999873
 48
0.0
 49
0.0
140
0.0
141
0.0
142
0.0220866142
143
1.0
 70
  1696
 72
     0
 73
     0
 74
     0
  7

 75
     0
147
0.0179189148
148
-1300.4909072572
149
0.0
100
AcDbLayout
  1
Model
 70
     1
 71
     0
 10
0.0
 20
0.0
 11
420.0
 21
297.0
 12
0.0
 22
0.0
 32
0.0
 14
-190.5
 24
-190.5
 34
0.0
 15
190.5
 25
190.5
 35
0.0
146
0.0
 13
0.0
 23
0.0
 33
0.0
 16
1.0
 26
0.0
 36
0.0
 17
0.0
 27
1.0
 37
0.0
 76
     0
330
1F
331
29
  0
MLINESTYLE
  5
18
102
{ACAD_REACTORS
330
17
102
}
330
17
100
AcDbMlineStyle
  2
Standard
 70
     0
  3

 62
   256
 51
90.0
 52
90.0
 71
     2
 49
0.5
 62
   256
  6
BYLAYER
 49
-0.5
 62
   256
  6
BYLAYER
  0
ACDBPLACEHOLDER
  5
F
102
{ACAD_REACTORS
330
E
102
}
330
E
  0
SCALE
  5
48
102
{ACAD_REACTORS
330
47
102
}
330
47
100
AcDbScale
 70
     0
300
1:1
140
1.0
141
1.0
290
     1
  0
SCALE
  5
49
102
{ACAD_REACTORS
330
47
102
}
330
47
100
AcDbScale
 70
     0
300
1:2
140
1.0
141
2.0
290
     0
  0
SCALE
  5
4A
102
{ACAD_REACTORS
330
47
102
}
330
47
100
AcDbScale
 70
     0
300
1:4
140
1.0
141
4.0
290
     0
  0
SCALE
  5
4B
102
{ACAD_REACTORS
330
47
102
}
330
47
100
AcDbScale
 70
     0
300
1:5
140
1.0
141
5.0
290
     0
  0
SCALE
  5
4C
102
{ACAD_REACTORS
330
47
102
}
330
47
100
AcDbScale
 70
     0
300
1:8
140
1.0
141
8.0
290
     0
  0
SCALE
  5
4D
102
{ACAD_REACTORS
330
47
102
}
330
47
100
AcDbScale
 70
     0
300
1:10
140
1.0
141
10.0
290
     0
  0
SCALE
  5
4E
102
{ACAD_REACTORS
330
47
102
}
330
47
100
AcDbScale
 70
     0
300
1:16
140
1.0
141
16.0
290
     0
  0
SCALE
  5
4F
102
{ACAD_REACTORS
330
47
102
}
330
47
100
AcDbScale
 70
     0
300
1:20
140
1.0
141
20.0
290
     0
  0
SCALE
  5
50
102
{ACAD_REACTORS
330
47
102
}
330
47
100
AcDbScale
 70
     0
300
1:30
140
1.0
141
30.0
290
     0
  0
SCALE
  5
51
102
{ACAD_REACTORS
330
47
102
}
330
47
100
AcDbScale
 70
     0
300
1:40
140
1.0
141
40.0
290
     0
  0
SCALE
  5
52
102
{ACAD_REACTORS
330
47
102
}
330
47
100
AcDbScale
 70
     0
300
1:50
140
1.0
141
50.0
290
     0
  0
SCALE
  5
53
102
{ACAD_REACTORS
330
47
102
}
330
47
100
AcDbScale
 70
     0
300
1:100
140
1.0
141
100.0
290
     0
  0
SCALE
  5
54
102
{ACAD_REACTORS
330
47
102
}
330
47
100
AcDbScale
 70
     0
300
2:1
140
2.0
141
1.0
290
     0
  0
SCALE
  5
55
102
{ACAD_REACTORS
330
47
102
}
330
47
100
AcDbScale
 70
     0
300
4:1
140
4.0
141
1.0
290
     0
  0
SCALE
  5
56
102
{ACAD_REACTORS
330
47
102
}
330
47
100
AcDbScale
 70
     0
300
8:1
140
8.0
141
1.0
290
     0
  0
SCALE
  5
57
102
{ACAD_REACTORS
330
47
102
}
330
47
100
AcDbScale
 70
     0
300
10:1
140
10.0
141
1.0
290
     0
  0
SCALE
  5
58
102
{ACAD_REACTORS
330
47
102
}
330
47
100
AcDbScale
 70
     0
300
100:1
140
100.0
141
1.0
290
     0
  0
ENDSEC
  0
EOF
